<?xml version='1.0' encoding='utf-8'?>
<svg xmlns="http://www.w3.org/2000/svg" xmlns:dc="http://purl.org/dc/elements/1.1/" xmlns:ns1="http://sodipodi.sourceforge.net/DTD/sodipodi-0.dtd" xmlns:ns2="http://www.inkscape.org/namespaces/inkscape" xmlns:ns4="http://creativecommons.org/ns#" xmlns:rdf="http://www.w3.org/1999/02/22-rdf-syntax-ns#" id="svg2" ns1:version="0.32" ns2:version="0.46" version="1.0" ns1:docname="Ospied.svg" ns2:output_extension="org.inkscape.output.svg.inkscape" viewBox="266 1 135 360">
  <metadata id="metadata7">
    <rdf:RDF>
      <ns4:Work rdf:about="">
        <dc:format>image/svg+xml</dc:format>
        <dc:type rdf:resource="http://purl.org/dc/dcmitype/StillImage" />
      </ns4:Work>
    </rdf:RDF>
  </metadata>
  <defs id="defs5">
    <ns2:perspective ns1:type="inkscape:persp3d" ns2:vp_x="0 : 526.18109 : 1" ns2:vp_y="0 : 1000 : 0" ns2:vp_z="744.09448 : 526.18109 : 1" ns2:persp3d-origin="372.04724 : 350.78739 : 1" id="perspective9" />
  </defs>
  <ns1:namedview ns2:window-height="827" ns2:window-width="1440" ns2:pageshadow="2" ns2:pageopacity="0.0" guidetolerance="10.0" gridtolerance="10.0" objecttolerance="10.0" borderopacity="1.0" bordercolor="#666666" pagecolor="#ffffff" id="base" showgrid="false" ns2:zoom="1.8844903" ns2:cx="357.60159" ns2:cy="260.71237" ns2:window-x="0" ns2:window-y="24" ns2:current-layer="svg2" />
  <path style="fill:#000000" d="M 327.06644,357.50628 C 325.66802,356.40628 323.10275,355.50628 321.36584,355.50628 C 316.87433,355.50628 314.6644,354.02136 313.38456,350.14338 C 312.77135,348.28534 310.26031,344.72701 307.80447,342.23598 C 302.22129,336.57281 301.87343,333.19638 306.48281,329.40756 C 310.08489,326.44673 309.63708,324.50628 305.35172,324.50628 C 301.59613,324.50628 299.68176,322.45596 296.2077,314.71294 C 292.80047,307.11888 290.71927,299.95842 289.80025,292.66781 C 289.43012,289.73164 288.05,284.67809 286.7333,281.43768 C 285.40564,278.17027 284.33931,273.49169 284.33931,270.93388 C 284.33931,267.83593 283.6827,265.48699 282.33931,263.77915 C 280.20766,261.0692 279.68763,257.02707 281.33931,256.00628 C 281.88931,255.66636 282.33931,254.89506 282.33931,254.29228 C 282.33931,253.68949 281.51638,253.94105 280.51057,254.85129 C 276.21991,258.73429 271.24881,254.7805 271.30651,247.53079 C 271.32632,245.04231 271.34515,241.89241 271.34836,240.53102 C 271.3573,236.73925 276.1461,231.5986 285.70294,225.12175 C 292.82504,220.29498 295.41519,219.10522 300.11255,218.50287 L 305.83931,217.76851 L 300.08931,217.6374 C 296.23479,217.5495 294.33445,217.09422 294.32457,216.25628 C 294.31646,215.56878 293.7455,216.12159 293.05577,217.48475 C 292.3,218.97843 290.03468,220.61596 287.35455,221.60599 C 284.90861,222.50951 281.08408,225.1067 278.8556,227.37752 C 274.27367,232.04648 272.89529,232.41366 271.28002,229.3955 C 269.9594,226.9279 270.45901,222.24601 272.88832,214.32385 L 274.63082,208.64143 L 271.98506,205.49713 C 269.00387,201.95418 268.62912,199.34057 270.83931,197.50628 C 271.66431,196.82159 272.33931,195.50459 272.33931,194.57962 C 272.33931,193.65464 273.6985,190.75462 275.35974,188.13512 C 278.3433,183.43053 278.35812,183.33965 276.5737,180.68934 C 272.11358,174.06492 271.96954,173.13998 274.75812,169.03078 C 277.21077,165.4166 277.33857,164.57429 277.32453,152.11673 C 277.30634,135.9853 275.60587,127.94434 270.69463,120.76619 C 267.82805,116.57645 267.23267,114.92277 267.72436,112.51619 C 268.06258,110.86074 268.6114,108.18341 268.94396,106.56656 C 269.79628,102.42275 272.51881,100.35309 277.91801,99.744524 C 281.22944,99.371278 282.13221,98.969892 281.03779,98.357424 C 280.17182,97.872802 278.47821,97.879738 277.16852,98.37327 C 274.57416,99.350899 270.33931,98.17238 270.33931,96.472767 C 270.33931,94.28905 272.51041,91.391729 274.79872,90.521716 C 278.8452,88.983245 280.87651,80.978362 280.62354,67.567503 C 280.50487,61.276173 280.82131,55.630434 281.32675,55.021416 C 281.83219,54.412399 282.26793,53.03485 282.29507,51.960198 C 282.3222,50.885545 282.61319,48.11827 282.9417,45.810697 C 283.50402,41.860869 283.74688,41.597278 287.08788,41.310697 C 289.03976,41.14327 290.9913,40.331284 291.42462,39.506284 C 293.79469,34.993959 295.25356,31.176551 294.85462,30.531049 C 294.60569,30.128279 295.56819,29.2674 296.9935,28.617985 C 300.2842,27.118638 303.45917,28.967215 305.32344,33.467969 C 306.47185,36.240489 306.39481,36.828671 304.62561,38.795432 C 301.4374,42.339669 301.27041,43.097129 302.84595,46.867931 C 304.91597,51.822182 304.75345,52.724963 301.38533,54.981567 C 298.76814,56.735053 298.60003,57.136897 299.8882,58.560308 C 302.02912,60.926001 301.67807,63.297248 298.42871,68.418737 C 293.84764,75.639203 292.90317,80.045064 294.54635,86.52961 C 296.34401,93.623825 295.78608,102.50628 293.5428,102.50628 C 292.29564,102.50628 292.20598,102.77295 293.13931,103.70628 C 293.79931,104.36628 294.33931,105.50951 294.33931,106.24678 C 294.33931,106.98405 295.31431,108.90603 296.50598,110.51784 C 299.50543,114.57482 299.19035,118.11083 295.27298,124.3552 C 292.40197,128.93167 291.94027,130.52023 292.07595,135.3552 C 292.23387,140.98254 296.15733,152.37002 301.38985,162.38788 C 303.35471,166.1497 303.51546,167.20126 302.52626,169.82194 C 300.51386,175.15341 302.20907,174.03244 304.83591,168.29467 C 309.13843,158.89673 310.03942,144.53879 307.70922,122.50628 C 307.38929,119.48128 306.50018,116.00961 305.73342,114.79146 C 303.76249,111.66025 304.00402,108.75609 306.33931,107.50628 C 308.62658,106.28217 308.98075,103.9664 306.99709,103.2052 C 305.1297,102.48862 305.50712,96.083322 307.54973,93.826264 C 311.79677,89.133338 312.58194,78.902548 309.35665,70.282175 C 308.07896,66.867255 307.57293,63.742677 307.93348,61.494662 C 308.2412,59.576054 308.45563,56.826186 308.40998,55.383845 C 308.36433,53.941503 309.02476,52.1823 309.8776,51.474503 C 310.94975,50.584698 311.23295,49.298525 310.79539,47.306302 C 310.38496,45.437664 310.71689,43.578965 311.73981,42.017791 C 312.70884,40.538863 312.93574,39.374898 312.32819,38.999414 C 310.74039,38.018097 311.18798,35.503906 313.08931,34.72406 C 314.05181,34.329283 314.83931,33.359889 314.83931,32.569852 C 314.83931,30.950765 321.20962,28.93332 322.34633,30.192417 C 324.02862,32.055831 324.39229,36.548723 322.90696,37.118696 C 321.88219,37.511938 321.5974,38.546742 321.98314,40.475457 C 322.28985,42.009004 322.13822,43.512531 321.64618,43.816629 C 321.15414,44.120727 320.85395,47.202665 320.9791,50.66538 C 321.10424,54.128094 320.775,57.48131 320.24745,58.116971 C 319.6096,58.885528 319.7458,59.448292 320.654,59.796801 C 322.75574,60.603312 322.47021,68.956129 320.16258,74.172914 C 317.41352,80.387618 318.35037,88.841014 322.40912,94.443963 C 325.07653,98.126209 325.16681,98.53593 323.64587,100.05687 C 322.45167,101.25107 321.94986,103.8006 321.80196,109.42528 C 321.6902,113.67551 321.08763,118.10803 320.46292,119.27531 C 319.06408,121.88907 317.37645,141.44339 317.35514,155.2848 C 317.34059,164.73454 317.5812,166.0425 320.33931,171.50628 C 322.48701,175.76085 323.33931,178.87785 323.33931,182.47776 C 323.33931,186.99199 323.56431,187.50628 325.53931,187.50628 C 327.25042,187.50628 327.47264,187.23961 326.53931,186.30628 C 325.86054,185.62751 325.33931,182.37619 325.33931,178.8209 C 325.33931,173.66722 325.92448,171.42001 328.58931,166.34009 C 331.81282,160.19517 331.84172,160.01368 332.13556,144.07547 C 332.37264,131.21549 332.0952,126.90786 330.74634,122.50628 C 329.24528,117.60804 329.02857,114.80878 329.32684,104.17045 C 329.37057,102.61074 330.28598,100.13574 331.36107,98.67045 C 332.43617,97.205159 334.07384,92.915725 335.00034,89.138375 C 336.66897,82.335374 336.66205,82.204617 334.26878,75.302881 C 331.8923,68.449585 331.8844,68.312093 333.78712,66.92079 C 335.50034,65.668047 335.52516,65.506284 334.00407,65.506284 C 332.54168,65.506284 332.32243,64.598133 332.52801,59.392367 C 332.67999,55.54395 333.24295,53.096754 334.04727,52.788108 C 334.82045,52.491414 335.10076,51.403998 334.75706,50.034614 C 334.05905,47.253515 338.4908,41.966702 340.78283,42.846235 C 342.862,43.644088 343.84264,48.194881 342.32853,50.01927 C 341.34634,51.20274 341.3623,51.829054 342.4067,53.087485 C 343.38755,54.269335 343.44165,55.11276 342.62092,56.426962 C 341.94876,57.503262 341.86919,58.732333 342.41577,59.595761 C 343.98046,62.067475 343.41607,63.993228 340.58931,65.827887 C 338.57981,67.132113 338.39198,67.462493 339.89177,67.054814 C 341.02062,66.747964 342.80761,67.128228 343.86286,67.899845 C 345.68369,69.231269 345.70686,69.626575 344.31743,75.654535 C 342.45567,83.731602 342.46093,94.633879 344.32954,100.81018 C 345.24708,103.84287 345.42464,105.87072 344.81113,106.31018 C 344.27663,106.69303 343.72371,109.48128 343.58242,112.50628 C 343.44114,115.53128 342.87787,119.36535 342.33073,121.02643 C 338.85398,131.58153 338.97851,167.74511 342.51587,174.79174 C 344.03677,177.82148 344.35856,180.31696 344.12773,187.29174 C 343.84874,195.7213 343.764,195.99818 341.53634,195.75868 C 339.30064,195.51832 339.31457,195.58093 342.01313,197.90213 L 344.79288,200.29317 L 342.87992,208.14973 C 341.32476,214.53679 340.29124,216.66439 337.35431,219.52485 C 334.05571,222.73755 328.93279,232.49359 331.3187,231.01902 C 331.88003,230.67209 332.33931,229.92408 332.33931,229.35676 C 332.33931,228.78944 334.2543,226.00349 336.59484,223.16577 C 341.40033,217.33949 344.55854,212.05884 343.73194,211.23224 C 343.42687,210.92717 343.67956,209.73903 344.29347,208.59193 C 345.52344,206.29371 349.24525,205.81222 351.13931,207.70628 C 352.07264,208.63961 352.33931,208.63411 352.33931,207.68153 C 352.33931,207.00792 351.30832,206.0648 350.04821,205.5857 C 348.78811,205.10661 347.21188,204.05766 346.54548,203.2547 C 344.76397,201.10812 344.41469,195.84368 345.91194,193.70605 C 346.62872,192.6827 347.17532,190.44322 347.12659,188.72944 C 347.06631,186.60932 347.99441,184.52419 350.0306,182.20509 C 355.87542,175.54822 358.45974,155.9883 356.26665,135.00628 C 355.57681,128.40628 354.91669,120.01601 354.79973,116.36123 C 354.68277,112.70646 354.29889,109.2499 353.94667,108.68 C 353.59445,108.11009 354.4387,105.97506 355.82279,103.93549 C 359.00074,99.25252 359.11709,93.385791 356.25439,82.173695 C 354.71066,76.127492 354.44577,73.565457 355.23391,72.303442 C 355.88429,71.262029 355.93218,70.3727 355.35704,70.017243 C 354.7703,69.654614 354.77801,68.482614 355.37752,66.905783 C 355.9065,65.514449 356.33931,63.081937 356.33931,61.500201 C 356.33931,59.918465 356.80761,58.33489 357.37999,57.981144 C 357.95236,57.627398 358.1368,56.443592 357.78985,55.350463 C 357.12998,53.271368 359.69976,49.506284 361.77869,49.506284 C 363.35148,49.506284 366.59571,55.229789 365.43095,55.94965 C 364.22935,56.692274 364.2352,74.323907 365.43728,75.066835 C 366.70273,75.848925 366.57103,85.570773 365.17032,94.773137 C 364.03262,102.24761 364.07481,102.65725 366.29106,105.65489 C 368.27714,108.34121 368.45181,109.23309 367.56056,112.13705 C 366.99216,113.98905 366.90886,115.74025 367.37543,116.02861 C 367.84201,116.31697 368.51393,118.4879 368.86858,120.8529 C 369.37122,124.20475 368.96418,126.45976 367.02259,131.07959 C 362.60117,141.60001 360.9238,169.11954 364.03799,180.04618 C 365.8224,186.30707 366.66211,205.38276 365.31281,209.00628 C 364.9032,210.10628 364.69007,206.50628 364.83918,201.00628 C 365.04927,193.25719 364.63653,189.31809 363.00551,183.50628 C 359.44698,170.82611 360.96821,142.85136 365.93365,129.65941 C 368.56513,122.66821 368.85924,121.06691 367.33931,122.00628 C 366.75817,122.36545 366.33931,121.37718 366.33931,119.64686 C 366.33931,115.62198 360.59784,111.76237 357.26439,113.54638 C 355.44797,114.51849 355.20837,115.27435 355.7407,118.35308 C 358.00675,131.45871 358.53755,139.49051 358.06106,153.46331 C 357.43947,171.69102 355.94618,178.2532 351.33795,183.00768 C 348.81949,185.60607 348.19624,186.97754 348.59232,189.04948 C 348.87413,190.52369 348.48527,192.91706 347.72817,194.36807 C 345.49857,198.64122 346.22058,203.50628 349.08435,203.50628 C 349.92643,203.50628 353.22617,206.31877 356.41711,209.75627 C 362.18499,215.96983 362.22462,215.99168 363.21567,213.50627 L 365.05679,206.97262 L 365.15058,209.47262 C 365.23865,211.82009 364.46899,215.88758 365.52879,214.06083 C 366.14955,212.99083 366.75778,208.25537 366.88041,203.5376 C 367.00303,198.81982 367.59058,192.49527 368.18606,189.48305 C 370.71619,176.6846 372.56112,155.90728 371.82462,148.50628 C 370.50508,135.24644 371.25317,124.81289 373.8024,120.92226 C 376.42952,116.91277 376.87548,109.86247 374.92613,103.15692 C 373.43063,98.012584 373.42503,97.305097 374.86245,95.111305 C 376.10732,93.211398 376.16541,92.607415 375.13889,92.236797 C 374.1588,91.882942 374.10585,91.305246 374.92349,89.886937 C 375.5198,88.852578 375.89518,85.981284 375.75769,83.506284 C 375.60968,80.841882 376.0511,78.394418 376.83984,77.506284 C 377.57252,76.681284 378.32213,74.660132 378.50565,73.014835 C 378.94313,69.092606 381.55413,68.658997 383.82894,72.130795 C 385.17149,74.179799 385.34732,75.26381 384.54539,76.547906 C 383.79609,77.747722 383.79561,78.562586 384.54376,79.310736 C 385.12737,79.894348 385.31537,81.126286 384.96153,82.048376 C 384.45101,83.378765 383.54614,83.591445 380.57875,83.078493 C 377.87903,82.611812 377.25637,82.716182 378.33931,83.453871 C 379.16431,84.015854 380.86771,84.482549 382.12465,84.490971 C 384.19519,84.504845 384.37976,84.905763 384.08828,88.756284 C 383.7731,92.919797 383.69607,93.002359 380.30293,92.813398 L 376.83931,92.620511 L 380.33931,93.897493 C 384.58826,95.447732 385.11078,97.667533 382.83767,104.51123 C 380.78918,110.67863 381.59871,119.52607 384.44739,122.10409 C 386.71519,124.15642 386.88663,126.80716 384.86032,128.48884 C 383.78591,129.38053 383.64913,130.21667 384.36032,131.54554 C 385.83174,134.29492 385.53066,138.31353 383.32641,145.34537 C 382.2335,148.83188 381.33931,154.24898 381.33931,157.38338 C 381.33931,160.51778 380.66791,168.46519 379.8473,175.04429 C 377.8794,190.82165 377.95519,195.97772 380.25149,202.54094 C 382.62604,209.32782 382.88502,227.08289 380.62213,227.95125 C 379.61704,228.33694 379.51774,228.97116 380.24863,230.33684 C 380.96916,231.68316 380.82728,232.79229 379.73505,234.35167 C 377.90875,236.95908 375.19143,237.12519 373.11634,234.75628 C 370.87695,232.19979 364.33931,219.70475 364.33931,217.9812 C 364.33931,217.16999 363.96431,216.50628 363.50598,216.50628 C 361.47887,216.50628 361.60225,217.98446 363.87846,220.96872 C 367.82386,226.14141 368.84263,230.08917 366.96974,232.94756 C 366.10231,234.27143 364.4806,235.64405 363.36595,235.99782 C 361.85803,236.47642 361.33931,237.50453 361.33931,240.01465 C 361.33931,241.87013 361.78931,243.66636 362.33931,244.00628 C 364.14311,245.12109 363.38744,248.32326 360.84943,250.31966 C 358.88511,251.8648 358.63117,252.50362 359.64638,253.34616 C 360.35413,253.93354 361.76622,257.19506 362.78435,260.59397 C 364.49867,266.317 364.521,267.13188 363.08639,271.61803 C 361.53923,276.45612 361.54107,276.46799 364.54542,281.00373 C 367.89571,286.06174 367.89109,286.99809 364.45665,299.00628 C 362.03877,307.46019 361.76509,317.17664 363.83315,321.14197 C 365.62941,324.58614 365.77617,329.82853 364.16015,332.82202 C 363.48758,334.06787 363.07843,338.16522 363.20779,342.35909 C 363.48653,351.39507 362.18061,353.74063 355.01293,357.07791 C 350.62654,359.12021 348.30017,359.48823 339.72417,359.49651 C 331.11398,359.50483 329.23074,359.20872 327.06644,357.50628 z M 345.58941,357.58518 C 359.17442,356.15963 364.16239,350.7302 361.50501,340.26095 C 360.91888,337.9518 360.81673,335.82485 361.278,335.53439 C 362.69695,334.64087 364.31782,327.26884 363.66617,324.67247 C 363.03068,322.14048 359.98445,318.50628 358.4976,318.50628 C 357.52723,318.50628 355.33931,311.74829 355.33931,308.75104 C 355.33931,307.63829 354.52166,305.71809 353.52231,304.48394 C 352.00481,302.60991 351.36001,302.42483 349.61053,303.36113 C 345.7816,305.41031 340.60563,312.50935 338.35601,318.79715 C 335.20389,327.60745 333.80482,329.50628 330.46548,329.50628 C 326.97292,329.50628 321.33931,327.6157 321.33931,326.44364 C 321.33931,324.72524 317.07615,323.33307 313.73401,323.96006 C 311.26582,324.42309 310.33931,325.1241 310.33931,326.52854 C 310.33931,327.59094 309.23186,329.1858 307.8783,330.07269 C 302.91336,333.32585 303.63293,336.28453 311.36618,344.41386 C 313.5514,346.71101 315.33931,349.23617 315.33931,350.02533 C 315.33931,352.27173 319.78156,354.68437 322.61043,353.97437 C 324.47062,353.50749 325.73976,353.99764 327.67086,355.92874 C 330.52949,358.78737 332.44527,358.96447 345.58941,357.58518 z M 336.91487,318.46263 C 340.14749,310.32516 341.93894,308.00719 350.20535,301.26607 C 353.50973,298.57139 353.10533,292.95486 349.34841,289.36454 C 347.70342,287.7925 345.6718,286.50628 344.83371,286.50628 C 343.99562,286.50628 342.47714,285.1369 341.45931,283.4632 L 339.6087,280.42013 L 338.9581,284.48879 C 338.56807,286.9279 338.91463,291.17539 339.8234,295.09392 C 342.36092,306.03549 342.15803,306.79408 335.50604,311.2361 C 328.92173,315.63294 322.33931,322.44312 322.33931,324.85843 C 322.33931,325.80081 323.47939,326.71963 325.08931,327.0747 C 326.60181,327.40829 328.28931,327.80119 328.83931,327.94782 C 331.75921,328.72628 333.78096,326.35161 336.91487,318.46263 z M 313.45566,322.61788 C 315.63196,322.11196 317.76996,322.16778 318.82475,322.75807 C 319.99867,323.41503 320.79329,323.38976 321.23099,322.68155 C 323.609,318.83384 329.38419,313.02723 332.33931,311.51278 C 338.65997,308.27356 339.73253,306.33091 338.8219,299.77124 C 338.38174,296.60051 337.95113,289.73128 337.865,284.50628 C 337.67074,272.72157 336.69622,267.13925 334.48364,265.1369 C 333.50785,264.25382 330.21166,263.39486 326.80649,263.13628 C 323.52454,262.88707 319.89389,262.38343 318.73839,262.01708 C 317.40988,261.59588 316.05743,261.93102 315.05981,262.92863 C 313.09127,264.89718 310.58657,264.92537 306.05039,263.03003 C 299.70629,260.37929 286.87174,263.07491 286.50258,267.13562 C 285.9923,272.74847 286.6396,277.9309 288.32755,281.74679 C 289.37188,284.10767 290.72168,289.18187 291.32711,293.02279 C 292.76858,302.16762 294.21562,307.50628 295.25285,307.50628 C 295.7129,307.50628 296.37965,308.95798 296.73451,310.73229 C 297.72007,315.6601 301.2565,322.32936 303.14854,322.82836 C 305.98326,323.57598 309.65697,323.50096 313.45566,322.61788 z M 361.37072,305.00628 C 361.91149,302.25628 363.31321,297.02829 364.48565,293.38852 L 366.61736,286.77076 L 363.34774,282.01854 L 360.07813,277.26631 L 361.72351,271.34819 C 363.0348,266.63172 363.12759,264.98096 362.18045,263.21818 C 361.52681,262.00163 360.70914,259.65628 360.3634,258.00628 C 359.67409,254.71661 359.26472,254.6472 348.80272,256.04622 C 344.46058,256.62686 342.82143,256.29137 336.91441,253.613 C 328.59192,249.8394 326.58395,249.73262 325.34261,252.9976 C 323.59158,257.60315 325.7871,260.46599 331.08931,260.49097 C 332.95271,260.49975 335.1649,261.33187 336.27438,262.44135 C 338.39604,264.56301 340.325,270.43018 340.33373,274.7884 C 340.34303,279.42719 342.9843,284.42115 346.04094,285.57925 C 351.56076,287.67061 353.33931,290.32718 353.33931,296.48059 C 353.33931,299.57472 353.79091,302.55788 354.34287,303.10984 C 354.89482,303.66179 356.02928,306.73507 356.86389,309.93935 C 358.88745,317.7083 359.78293,318.82905 360.1134,314.00628 C 360.26415,311.80628 360.82994,307.75628 361.37072,305.00628 z M 299.33931,260.92935 C 302.91431,261.04105 307.31049,261.63764 309.1086,262.25509 C 310.90672,262.87255 312.14815,263.006 311.86735,262.55166 C 311.19769,261.46812 317.89024,260.22898 320.29308,260.99161 C 321.96989,261.52381 322.10153,261.15237 321.58936,257.33386 C 321.1237,253.86215 320.08708,252.2136 315.9293,248.33264 C 313.12981,245.71952 309.3281,243.06362 307.48106,242.43062 C 300.49648,240.03695 292.8527,243.38544 286.25873,251.72744 C 282.24886,256.80031 281.45751,260.12142 283.48503,263.36801 C 284.58485,265.1291 284.79518,265.11293 288.73503,262.96442 C 291.95905,261.20627 294.23339,260.7698 299.33931,260.92935 z M 323.62268,256.5823 C 323.18899,253.34893 323.52349,252.23119 325.52326,250.23142 C 327.31944,248.43524 328.01571,246.538 328.20242,242.93105 C 328.54032,236.40326 329.60463,220.43996 329.40564,241.61096 L 329.40564,246.64596 L 333.41693,247.78986 C 335.65961,248.09067 338.24711,249.01486 339.16693,249.84362 C 343.25324,253.52543 355.41025,253.06966 360.07189,249.05988 C 362.69339,246.80496 362.70899,246.71943 360.98002,244.08069 C 358.74402,240.66813 359.13144,235.28675 361.63902,234.92691 C 367.75371,234.04945 367.55572,228.06557 361.13653,219.74007 C 357.2924,214.75434 349.05638,207.59609 347.08931,207.53107 C 346.67681,207.51744 346.33931,208.00077 346.33931,208.60515 C 346.33931,209.20953 345.58643,211.34703 344.66623,213.35515 C 341.16721,220.991 329.42511,238.15205 328.33931,234.09978 C 328.12928,233.31592 327.97501,232.39916 327.52974,232.12397 C 327.08448,231.84879 326.90881,234.23146 327.13936,237.41881 C 327.53796,242.92936 327.41052,243.31938 324.54456,245.36013 C 321.24767,247.70772 318.82188,248.09611 317.79849,246.44023 C 317.43612,245.8539 315.31704,244.0539 313.08943,242.44023 C 309.76526,240.03221 308.12503,239.53152 303.93927,239.64708 L 298.83931,239.78788 L 303.83931,240.41489 C 309.65189,241.14381 310.13476,241.40027 317.07669,247.44545 C 320.92902,250.80015 322.31741,252.7119 322.32669,254.67449 C 322.33863,257.19928 323.20309,260.50628 323.85114,260.50628 C 324.01496,260.50628 323.91215,258.74049 323.62268,256.5823 z M 282.5247,249.75628 C 288.23749,242.16437 295.15418,238.50628 303.79612,238.50628 C 310.08769,238.50628 312.22201,239.40409 317.51806,244.27847 L 320.19681,246.74394 L 323.26806,244.55701 C 325.82703,242.73487 326.33931,241.69752 326.33931,238.3379 C 326.33931,234.93347 325.67389,233.63076 322.0652,229.97036 C 317.07569,224.90936 306.36617,219.5082 301.3184,219.50707 C 293.51065,219.50532 272.33931,235.17727 272.33931,240.95866 C 272.33931,242.35985 272.68005,243.50628 273.09652,243.50628 C 273.51298,243.50628 273.69043,245.5594 273.49085,248.06877 C 273.2081,251.62397 273.53767,252.94161 274.98365,254.03697 C 276.00426,254.81011 277.145,255.45698 277.51862,255.47448 C 277.89224,255.49197 280.14497,252.91878 282.5247,249.75628 z M 351.30842,254.54653 C 352.31813,253.90795 351.13649,253.63012 347.52974,253.65806 C 344.21242,253.68375 341.32614,253.07245 339.68372,251.99629 C 336.54773,249.94151 330.45137,248.01834 332.00789,249.57486 C 333.68593,251.2529 344.62747,255.4581 347.33931,255.46723 C 348.71431,255.47186 350.50041,255.05755 351.30842,254.54653 z M 291.43747,244.29742 L 294.83931,241.39223 L 291.67931,242.9284 C 288.46237,244.49224 282.31734,251.12728 282.36621,252.98412 C 282.38101,253.54631 283.66268,252.47545 285.21437,250.60444 C 286.76607,248.73343 289.56646,245.89527 291.43747,244.29742 z M 378.08514,234.36045 C 378.72891,233.71668 378.97716,231.94552 378.65171,230.31826 C 378.2269,228.19423 378.56411,227.06239 379.9163,226.07364 C 381.51462,224.90492 381.59543,224.36382 380.52314,222.01039 C 379.54722,219.86848 379.54315,218.58455 380.50389,215.92769 C 381.55183,213.02966 381.41288,211.61484 379.50761,205.78313 C 376.42287,196.34132 376.2533,193.78813 377.80014,180.07441 C 378.54881,173.43694 379.45603,163.95628 379.81618,159.00628 C 380.17633,154.05628 381.35016,146.79622 382.42471,142.87281 C 383.83785,137.71306 384.11649,135.05041 383.43175,133.24941 C 382.40572,130.55074 375.95167,126.00979 374.45594,126.9342 C 372.84372,127.93061 372.17326,138.77146 373.29257,145.74531 C 374.1804,151.27697 374.00346,155.66639 372.30497,170.24531 C 371.1669,180.01384 369.7435,189.80628 369.14185,192.00628 C 368.5402,194.20628 368.1159,199.27748 368.19897,203.27562 C 368.28203,207.27375 367.78317,211.99875 367.09038,213.77562 C 365.35886,218.21664 365.5363,219.29954 368.90267,224.8359 C 370.51782,227.4922 372.6202,230.9797 373.57461,232.5859 C 375.46518,235.76759 376.33557,236.11002 378.08514,234.36045 z M 323.68452,226.73991 C 322.57305,225.23642 320.01569,223.21524 318.00149,222.24841 C 315.98729,221.28158 314.33931,220.10648 314.33931,219.63708 C 314.33931,219.16768 313.18746,219.00381 311.77964,219.27293 C 309.3327,219.7407 309.4041,219.8557 313.401,221.88426 C 315.70057,223.05137 319.21492,225.42383 321.21067,227.15639 C 325.44118,230.82899 326.56725,230.63942 323.68452,226.73991 z M 329.94726,228.75628 C 330.67791,227.79378 331.29001,226.20072 331.30751,225.21615 C 331.325,224.23159 333.13881,221.75659 335.3382,219.71615 C 338.39918,216.87639 339.68915,214.64623 340.8382,210.20749 C 343.08078,201.54442 342.84357,199.69035 339.23922,197.70977 C 337.53417,196.77285 334.31703,194.65628 332.09002,193.00628 C 329.86301,191.35628 327.4415,189.56391 326.70888,189.02323 C 324.04797,187.05947 321.91207,191.03429 321.19845,199.27792 C 320.36198,208.94063 320.016,210.34722 317.43389,214.58274 C 316.28598,216.46569 315.3451,218.34024 315.34305,218.74841 C 315.34099,219.15658 317.02417,220.28388 319.08345,221.25352 C 321.14273,222.22316 323.91813,224.7017 325.25099,226.76139 C 328.0315,231.05812 328.15885,231.11222 329.94726,228.75628 z M 278.82408,225.52188 C 280.96394,223.33046 284.31777,221.03081 286.27702,220.41154 C 291.58849,218.73273 292.24702,217.35525 291.6471,209.17864 C 291.14773,202.3724 291.30628,201.65878 294.75309,195.19856 C 298.09898,188.92749 298.30163,188.08007 297.32377,184.44856 C 296.41863,181.08714 295.86272,180.50696 293.55077,180.51091 C 286.45404,180.52303 274.49562,188.00131 274.36911,192.50628 C 274.34594,193.33128 273.65476,195.29522 272.83315,196.87059 C 270.73009,200.90303 270.95151,202.49207 274.07008,205.74715 L 276.80084,208.59745 L 274.57008,214.98928 C 272.06039,222.1803 271.5892,229.50628 273.63636,229.50628 C 274.34974,229.50628 276.68421,227.7133 278.82408,225.52188 z M 313.28673,214.75628 C 313.85951,212.69378 314.33067,209.78247 314.33373,208.2867 C 314.3368,206.79093 315.23931,203.96474 316.33931,202.00628 C 318.85745,197.52295 318.85165,196.50628 316.30793,196.50628 C 315.19066,196.50628 314.02599,195.85335 313.71975,195.05531 C 312.80712,192.67703 304.94144,190.11366 302.52485,191.40698 C 298.99168,193.29787 295.33931,202.8782 295.33931,210.25493 L 295.33931,216.7619 L 299.08931,216.20588 C 301.17044,215.89731 304.39692,216.23236 306.33931,216.95876 C 311.66982,218.95222 312.16506,218.79522 313.28673,214.75628 z M 318.54653,208.0966 C 319.08334,206.39693 319.68222,202.98128 319.87738,200.50628 C 320.07254,198.03128 319.98026,196.88752 319.67232,197.9646 C 319.36438,199.04167 318.53172,200.84167 317.82196,201.9646 C 317.11221,203.08752 316.23039,206.03128 315.86236,208.50628 C 315.49433,210.98128 314.98464,213.90628 314.72973,215.00628 C 314.07323,217.83916 317.33377,211.93649 318.54653,208.0966 z M 357.83931,212.50628 C 356.25851,210.85628 354.62802,209.50628 354.21599,209.50628 C 353.18751,209.50628 358.60803,215.23965 359.7764,215.38761 C 360.2918,215.45288 359.42011,214.15628 357.83931,212.50628 z M 294.06614,209.77506 C 293.43582,204.18294 297.23085,193.39609 300.67805,190.98157 C 303.36832,189.09723 307.41213,189.09412 309.89818,190.97448 C 312.81263,193.17885 314.1986,192.73906 311.47853,190.47301 C 310.18009,189.39131 307.64769,188.50628 305.85097,188.50628 C 301.96361,188.50628 300.44526,186.934 299.66008,182.09551 C 299.33973,180.12143 298.63836,178.50628 298.10148,178.50628 C 297.5646,178.50628 297.41972,179.27343 297.77952,180.21107 C 298.13932,181.1487 298.686,183.75654 298.99436,186.00627 C 299.46139,189.41359 299.04532,190.9004 296.50293,194.90933 C 292.79903,200.74977 291.93225,204.30611 292.80087,210.09851 C 293.68821,216.01571 294.73926,215.74702 294.06614,209.77506 z M 320.08391,193.77247 C 320.30898,193.09727 319.65345,192.87288 318.40766,193.19866 C 317.28244,193.49291 316.62298,194.15625 316.9422,194.67276 C 317.65657,195.82863 319.58249,195.27673 320.08391,193.77247 z M 335.42779,192.10047 C 334.18471,190.77727 332.19377,189.45412 331.00348,189.16014 C 329.30209,188.73993 329.57966,189.25438 332.30154,191.56596 C 336.46993,195.106 338.59223,195.46886 335.42779,192.10047 z M 343.02475,186.64605 C 343.26615,180.58434 342.91912,178.65916 340.87361,174.71232 C 338.47533,170.08482 338.43931,169.63914 338.715,148.00628 C 338.93783,130.52154 339.33554,125.0827 340.65279,121.50628 C 341.56437,119.03128 342.31675,115.0865 342.32476,112.7401 C 342.33803,108.84953 342.0335,108.32809 338.8658,106.81752 C 336.16367,105.52897 334.86342,105.40208 333.01084,106.24617 C 329.94883,107.64132 328.80416,113.57074 330.8377,117.50317 C 334.08068,123.77441 335.27464,142.26287 333.3129,155.83164 C 332.7288,159.87165 331.10541,164.97274 329.33485,168.33164 C 327.18894,172.40261 326.34299,175.39704 326.34145,178.92754 C 326.3393,183.87676 328.26781,187.50628 330.89968,187.50628 C 331.5874,187.50628 334.05518,189.09794 336.38362,191.0433 C 338.71207,192.98867 341.09411,194.42135 341.67704,194.22704 C 342.25997,194.03273 342.86644,190.62128 343.02475,186.64605 z M 317.86241,191.74097 C 320.22472,190.04459 322.33931,185.31732 322.33931,181.73263 C 322.33931,179.15186 321.24673,176.07421 319.01459,172.36738 L 315.68987,166.84614 L 316.41052,145.98679 C 316.80688,134.51415 316.90993,124.55092 316.63953,123.84627 C 316.36913,123.14161 317.06498,121.39919 318.18587,119.97422 C 319.62047,118.15042 320.21267,115.94192 320.18612,112.51468 C 320.15117,108.00202 319.86354,107.44857 316.25276,104.94631 C 313.04641,102.7243 312.09013,102.4682 310.84821,103.4989 C 310.01832,104.18765 309.33931,105.36726 309.33931,106.12025 C 309.33931,106.87325 308.43931,108.0514 307.33931,108.73836 C 305.30701,110.00755 304.54492,113.50628 306.30077,113.50628 C 308.53966,113.50628 309.71003,122.60546 309.77361,140.50628 C 309.84509,160.63433 308.95931,165.3664 303.65775,173.17869 C 300.90573,177.23401 300.29114,183.53838 302.40009,186.07951 C 303.05135,186.86423 305.07901,187.50628 306.90599,187.50628 C 309.01345,187.50628 311.25348,188.40864 313.03355,189.97468 C 316.13742,192.70534 316.39053,192.79792 317.86241,191.74097 z M 286.065,179.31897 C 286.77518,178.72958 288.92231,178.50148 290.8364,178.81209 C 293.64989,179.26866 294.60608,178.96349 295.82794,177.21906 C 296.65919,176.03227 297.33931,175.4764 297.33931,175.98377 C 297.33931,178.60867 299.44304,174.27437 300.24029,170.00692 C 301.09491,165.43234 300.8914,164.52996 297.31771,157.04812 C 295.20507,152.62511 293.17189,147.76878 292.79952,146.25628 C 292.42716,144.74378 291.72128,143.50628 291.2309,143.50628 C 290.74053,143.50628 290.33931,140.75418 290.33931,137.39049 C 290.33931,130.84369 293.05968,121.50628 294.96704,121.50628 C 297.79404,121.50628 298.12209,114.77114 295.45994,111.38676 C 294.42628,110.07269 293.41231,108.12386 293.20667,107.05605 C 292.58315,103.81836 286.5685,101.03962 280.18397,101.03962 C 273.77564,101.03962 270.33931,103.18115 270.33931,107.17484 C 270.33931,108.47206 269.79841,110.39954 269.1373,111.45814 C 267.74717,113.6841 268.75772,116.13819 273.21502,121.36065 C 277.13058,125.94839 279.27661,140.0085 278.45288,155.67752 C 277.92673,165.68587 277.51447,167.7874 275.55937,170.42752 C 274.30541,172.12084 273.74291,173.50628 274.30937,173.50628 C 274.87584,173.50628 275.33931,174.40247 275.33931,175.49781 C 275.33931,176.59315 276.23931,178.05139 277.33931,178.73835 C 278.43931,179.42531 279.33931,180.54299 279.33931,181.22208 C 279.33931,182.57072 283.59932,181.3653 286.065,179.31897 z M 384.33931,125.83502 C 384.33931,124.91583 383.57152,123.31536 382.6331,122.27842 C 380.18932,119.57807 379.72555,109.31214 381.74078,102.52612 C 383.47056,96.701312 383.23329,95.991792 379.22485,95.002656 C 375.49281,94.081727 374.95851,96.407863 376.89884,105.12926 C 378.60603,112.80273 378.08027,116.87783 374.68533,122.28601 C 373.32975,124.44546 373.37751,124.5348 375.59053,123.97936 C 377.20841,123.5733 378.49914,124.02541 379.78805,125.44964 C 382.0358,127.93337 384.33931,128.12842 384.33931,125.83502 z M 366.59971,111.75628 C 366.82359,110.79378 366.12022,108.50387 365.03666,106.66758 C 363.29191,103.71079 363.16082,102.39533 363.89067,95.167585 C 364.34394,90.678869 364.74281,84.538435 364.77705,81.522174 C 364.83718,76.225409 364.71974,75.97938 361.33931,74.320206 C 359.41431,73.375384 357.50181,72.580733 357.08931,72.554316 C 356.01291,72.48538 356.16452,77.916357 357.32415,80.966409 C 357.86581,82.391088 358.78301,86.524005 359.36238,90.150669 C 360.47034,97.086238 359.56794,102.30464 356.68877,105.61167 C 354.49462,108.13187 355.98876,110.52639 359.33755,109.85664 C 361.52518,109.41911 362.40687,109.76401 363.28228,111.39972 C 364.6541,113.96299 366.0515,114.11318 366.59971,111.75628 z M 343.77192,103.25628 C 343.38572,102.01878 342.68263,100.7561 342.20948,100.45033 C 340.11387,99.09602 340.09595,87.905706 342.17621,79.679397 C 343.32028,75.155224 344.00186,70.790475 343.69083,69.979956 C 343.37822,69.165306 341.86816,68.506284 340.31411,68.506284 C 338.76794,68.506284 336.79108,68.233139 335.9211,67.899295 C 333.8607,67.108645 333.82628,70.034188 335.83931,74.852041 C 338.66476,81.614289 336.87917,94.007663 332.22741,99.921416 C 329.77393,103.04051 330.35558,104.27551 333.58508,102.80412 C 335.93446,101.73373 339.64479,102.57351 340.796,104.43621 C 341.15974,105.02475 342.13611,105.50628 342.96571,105.50628 C 344.07133,105.50628 344.2866,104.90551 343.77192,103.25628 z M 320.67266,94.298626 C 316.79096,88.229276 316.20344,78.499699 319.33948,72.220399 C 321.11456,68.666131 321.33506,67.366853 320.44528,65.704292 C 319.69982,64.31138 319.66941,63.420307 320.35292,62.997874 C 322.20631,61.852415 320.27613,60.506284 316.78029,60.506284 C 314.88775,60.506284 313.33931,60.056284 313.33931,59.506284 C 313.33931,58.956284 312.39588,58.506284 311.2428,58.506284 C 309.34035,58.506284 309.19114,58.945984 309.63082,63.256284 C 309.89732,65.868784 310.90983,70.575899 311.88084,73.71654 C 313.54279,79.091983 313.54915,79.820518 311.98923,86.141758 C 311.07783,89.834987 309.65876,93.600805 308.83573,94.510243 C 308.0127,95.41968 307.33931,97.616349 307.33931,99.391729 C 307.33931,102.5277 307.40265,102.57533 309.56182,101.06299 C 312.48976,99.012175 314.00624,99.099133 317.04866,101.4923 L 319.57347,103.47831 L 321.49566,101.03464 C 323.41105,98.599624 323.40813,98.575764 320.67266,94.298626 z M 289.83931,100.50628 C 289.49939,99.956284 288.23533,99.537912 287.03029,99.576569 C 284.91793,99.644333 284.91107,99.677693 286.83931,100.50628 C 289.59179,101.68907 290.57031,101.68907 289.83931,100.50628 z M 293.78745,100.5902 C 294.09884,100.08635 293.92294,98.541341 293.39655,97.156838 C 292.7222,95.383156 292.78302,94.525047 293.60246,94.251901 C 294.48249,93.958557 294.47031,92.585682 293.55237,88.608973 C 291.60056,80.153257 292.02395,77.200099 296.37154,68.945089 C 300.79586,60.5444 300.58312,58.506284 295.28196,58.506284 C 291.7541,58.506284 287.05659,56.772748 287.71178,55.712635 C 287.98283,55.274068 287.07817,54.935725 285.70142,54.960762 C 282.1556,55.025245 281.02759,57.682883 281.94136,63.819609 C 282.95884,70.652844 282.57126,76.815286 280.8053,81.88295 C 280.01501,84.150784 279.36187,86.80896 279.35386,87.790009 C 279.34586,88.771058 277.76431,90.503007 275.83931,91.638785 C 273.88895,92.789528 272.33931,94.505261 272.33931,95.51393 C 272.33931,97.037297 273.17093,97.316005 277.58931,97.273401 C 284.80354,97.203838 289.65073,98.200376 290.8342,99.996428 C 291.96844,101.71777 292.96654,101.91845 293.78745,100.5902 z M 382.49206,89.105017 C 382.73051,87.112757 382.36934,86.12476 381.33931,85.951637 C 380.51431,85.812975 379.16431,85.42607 378.33931,85.091849 C 377.20354,84.631731 376.83931,85.215325 376.83931,87.495229 C 376.83931,89.6562 377.31671,90.506284 378.53029,90.506284 C 379.46033,90.506284 380.51789,90.986223 380.88043,91.572815 C 381.76906,93.010648 382.08194,92.531544 382.49206,89.105017 z M 382.92971,77.714255 C 382.81129,75.078638 382.37392,72.371298 381.95776,71.697943 C 380.74636,69.737861 379.27564,71.404415 379.92689,73.999223 C 380.34483,75.664404 379.91382,76.890173 378.47814,78.119443 L 376.43446,79.869295 L 378.63689,81.089741 C 382.56085,83.264157 383.15797,82.794639 382.92971,77.714255 z M 359.83931,71.506284 C 359.49939,70.956284 358.68533,70.513175 358.03029,70.521597 C 357.31468,70.530798 357.43802,70.923824 358.33931,71.506284 C 360.26043,72.747809 360.60661,72.747809 359.83931,71.506284 z M 363.02757,68.764815 C 362.90739,67.014779 361.97181,65.561739 360.44053,64.746929 C 357.51066,63.187914 356.56809,63.860387 358.44681,66.169349 C 359.67332,67.676743 359.63071,67.802567 358.08931,67.2249 C 356.90014,66.779235 356.33931,67.058619 356.33931,68.096686 C 356.33931,68.936883 356.72302,69.387175 357.19199,69.097334 C 357.66096,68.807493 358.89846,69.216624 359.94199,70.006514 C 362.67638,72.076292 363.23942,71.849714 363.02757,68.764815 z M 340.4506,64.215664 C 341.61254,63.33084 341.83068,62.36363 341.23283,60.747467 C 340.47958,58.71126 339.15,58.271955 334.58931,58.552404 C 333.44524,58.622756 334.38622,63.90522 335.6917,64.740971 C 337.3068,65.774941 338.58882,65.633427 340.4506,64.215664 z M 362.81187,59.381364 C 362.35892,57.319099 362.54714,55.995874 363.36535,55.490192 C 364.33176,54.892918 364.27935,54.258769 363.12771,52.614575 C 361.67886,50.546045 361.61695,50.542016 359.92964,52.40647 C 358.80002,53.654681 358.57581,54.534415 359.27687,54.967695 C 360.0325,55.434699 360.02786,56.21972 359.26099,57.652619 C 358.66495,58.766346 358.32623,59.751536 358.50829,59.84193 C 358.69035,59.932325 359.73931,60.542321 360.83931,61.197477 C 363.60775,62.84635 363.57877,62.873031 362.81187,59.381364 z M 316.33931,58.006284 C 315.65462,57.181284 314.36202,56.520596 313.46687,56.538087 C 312.09955,56.564806 312.14968,56.804646 313.78044,58.038087 C 316.30698,59.949066 317.93488,59.928833 316.33931,58.006284 z M 319.9477,56.084425 C 320.24779,55.302402 320.00745,53.754712 319.41361,52.645113 C 318.69973,51.311212 318.67364,50.417693 319.33661,50.007955 C 321.09671,48.920151 320.41727,46.355445 317.82978,44.320129 C 316.44954,43.234432 315.5761,41.932168 315.8888,41.426209 C 316.92825,39.744336 315.44551,40.475919 313.42989,42.639428 C 312.04227,44.128873 311.60839,45.601707 311.9921,47.520223 C 312.33591,49.239274 311.89917,51.24839 310.82546,52.887079 L 309.10929,55.506284 L 312.66528,55.506284 C 314.62108,55.506284 316.49939,55.956284 316.83931,56.506284 C 317.73143,57.949757 319.31434,57.734929 319.9477,56.084425 z M 341.66397,55.848293 C 342.02586,55.486398 341.8097,54.573072 341.18361,53.818679 C 340.40558,52.881208 340.35224,51.744251 341.01509,50.22667 C 341.67386,48.718435 341.61517,47.292478 340.83209,45.780739 L 339.67927,43.555194 L 337.61606,46.345833 C 336.11878,48.37101 335.81305,49.601417 336.50144,50.831518 C 337.19385,52.068785 337.02998,52.687753 335.89467,53.123412 C 333.48153,54.049424 334.05541,55.330432 337.08931,55.79003 C 338.60181,56.019154 340.10181,56.274044 340.42264,56.356452 C 340.74348,56.43886 341.30207,56.210188 341.66397,55.848293 z M 301.08931,53.562722 C 303.72524,51.363743 303.89591,50.21311 301.83931,48.506284 C 299.66092,46.698381 299.95206,41.166715 302.33931,39.006284 C 303.43931,38.010798 304.33931,36.391147 304.33931,35.40706 C 304.33931,32.898213 299.93927,28.017457 298.48679,28.915138 C 297.83773,29.316277 297.58781,30.099349 297.93141,30.655299 C 298.275,31.21125 297.60734,32.330672 296.44772,33.142905 C 295.28809,33.955138 294.33931,35.394047 294.33931,36.340482 C 294.33931,39.525655 291.39625,42.506284 288.25122,42.506284 C 285.09844,42.506284 284.85222,42.857688 283.87191,48.756284 C 283.29945,52.200817 283.43973,52.506284 285.594,52.506284 C 286.88392,52.506284 288.36681,52.921658 288.88931,53.429337 C 289.73658,54.252575 293.01364,54.987041 297.33931,55.323183 C 298.16431,55.387292 299.85181,54.595085 301.08931,53.562722 z M 320.65606,39.340055 C 320.2834,37.47675 320.50332,36.022956 321.22534,35.576721 C 321.95873,35.123462 322.1076,34.079227 321.62058,32.804263 C 321.00038,31.180601 320.37888,30.931138 318.60596,31.594224 C 317.22291,32.111498 316.58418,32.980819 316.92829,33.877557 C 317.27054,34.769466 316.68806,35.578208 315.41163,35.98333 C 312.58457,36.880606 312.80832,38.156199 315.93023,38.939748 C 317.43779,39.318122 318.32001,40.114204 318.0401,40.843628 C 317.76977,41.548086 318.37038,42.158343 319.41118,42.236744 C 320.9574,42.353218 321.16301,41.874782 320.65606,39.340055 z" id="path2384" ns1:nodetypes="csssssssssssssssscccssssscccsssssssssssssssssssssssssssssssssssssssssssssssssssssssssssssssssssssssssssssssssssssssssssssssssscccsssssssssssssssssssssssssssssssssssssssssssssssscccsssssssssssssssssssscccssssssssssssssssssssssssssssssccsssssssssssssssssccssscccsssssccsssssssssssssssscccccccsssssssssssssccsssssssssccsscccsssssssssssssscccsssccscccssssssssccssssccccssccsssssssssssssssssccsssssccsssssssssssccssssssscccsccssssscccsccsssssccssccssssssssssccssccssccsssssssssssssccscccsssssssssssssccsssssssssssssssssssssccsssssssccssssssssssccssssssssssccsssssssssssscccccssccssssssssssssssccsssssccsscccccssccssssssccsssccsssssssccssccsssssscccsccsscccssssccssssssssssssccssssssssc" />
  <path style="opacity:0.54035088;fill:#9999cc;fill-opacity:1;stroke:#ff0000;stroke-width:0.13266186;stroke-opacity:1" d="M 333.41184,358.30888 C 330.71187,358.16265 329.79396,357.77433 327.64105,355.86763 C 326.71388,355.04648 325.87506,354.42995 325.3406,354.17682 C 324.53395,353.79475 324.45505,353.78288 323.41701,353.8873 C 321.82829,354.04713 320.43563,354.0061 319.66671,353.77682 C 317.47528,353.12335 315.62636,351.64034 315.43551,350.38297 C 315.21755,348.94698 314.00096,347.27725 309.86484,342.73741 C 307.28831,339.90936 305.59321,337.52801 305.06699,335.99714 C 304.72514,335.00263 304.75378,333.61604 305.13216,332.84166 C 305.47468,332.14063 306.55009,331.04538 307.83944,330.08437 C 309.39786,328.92281 310.13619,327.88219 310.34522,326.55266 C 310.41403,326.11488 310.5783,325.60745 310.71022,325.42504 C 311.74198,323.99831 315.3734,323.4301 318.28795,324.23934 C 320.04403,324.72692 321.07637,325.45104 321.30226,326.35367 C 321.74821,328.13576 329.4897,330.18526 332.23803,329.24883 C 333.00352,328.988 333.80751,328.34745 334.43156,327.50116 C 335.48897,326.06722 336.28157,324.3355 338.38739,318.85827 C 340.37109,313.69872 343.53863,308.72402 346.84886,305.56933 C 349.24741,303.28349 350.86855,302.48762 351.95793,303.0611 C 352.48371,303.3379 353.47492,304.41159 354.08347,305.36354 C 354.81575,306.50903 355.1451,307.56289 355.37362,309.49176 C 355.86127,313.60795 357.63168,318.52662 358.62561,318.52662 C 359.04259,318.52662 360.47099,319.60293 361.20988,320.4739 C 363.41348,323.07138 364.01443,324.90134 363.6676,327.95801 C 363.32009,331.02057 362.51271,333.74807 361.50847,335.25191 L 360.96821,336.06099 L 361.04288,337.34294 C 361.08397,338.04801 361.29965,339.46996 361.5222,340.50281 C 362.1889,343.59697 362.30598,345.71618 361.91689,347.6459 C 360.89365,352.72045 356.62213,355.76005 348.58264,357.13447 C 346.08746,357.56104 338.9833,358.24193 335.79976,358.35963 C 335.32549,358.37716 334.25093,358.35433 333.41184,358.30888 L 333.41184,358.30888 z" id="path2468" />
  <path style="opacity:0.54035088;fill:#9999cc;fill-opacity:1;stroke:#ff0000;stroke-width:0.13266186;stroke-opacity:1" d="M 305.15487,323.17108 C 303.41218,322.9404 302.88524,322.76401 302.28444,322.21021 C 300.3337,320.41208 298.02275,315.71675 296.92061,311.31208 C 296.27,308.71199 295.79115,307.63532 295.20221,307.4484 C 294.30982,307.16516 293.1451,303.20684 291.94532,296.37975 C 290.54377,288.40454 289.97207,286.08191 288.3352,281.71295 C 286.88102,277.83161 286.41412,275.17477 286.41185,270.76835 C 286.41108,269.27259 286.45498,267.7333 286.50941,267.34771 C 286.8285,265.08714 289.91037,263.32427 295.17698,262.38978 C 296.55636,262.14502 297.35878,262.08988 299.58307,262.08703 C 302.85344,262.08282 303.78032,262.23852 306.59723,263.26525 C 309.11707,264.18371 310.2957,264.44131 311.68959,264.37824 C 312.98084,264.31981 313.89023,263.95389 314.88441,263.0927 C 316.25438,261.90598 317.22959,261.68552 319.15069,262.1282 C 320.68894,262.48267 322.47371,262.73438 325.85012,263.07306 C 330.06554,263.4959 332.96473,264.15918 334.21551,264.9869 C 335.46757,265.81548 336.49041,268.40752 337.054,272.18012 C 337.39731,274.47815 337.64922,278.20721 337.78764,283.03957 C 337.99304,290.21017 338.32369,295.86098 338.73079,299.15799 C 338.98294,301.20017 339.08766,303.70711 338.96075,304.66345 C 338.88555,305.22998 338.66019,305.97015 338.38278,306.56164 C 337.62924,308.16833 336.37185,309.24171 333.10492,311.06713 C 332.38889,311.46722 331.33411,312.13024 330.76096,312.54052 C 327.95671,314.5479 323.79944,318.86963 321.72038,321.93874 C 321.36349,322.46558 320.94611,322.96372 320.79288,323.04574 C 320.40536,323.25313 319.69907,323.13575 318.68638,322.69564 C 317.89505,322.35173 317.69305,322.3213 316.23213,322.32589 C 315.10329,322.32944 314.23498,322.41726 313.24724,322.62778 C 310.34411,323.24656 307.27949,323.45231 305.15487,323.17108 L 305.15487,323.17108 z" id="path2470" />
  <path style="opacity:0.54035088;fill:#9999cc;fill-opacity:1;stroke:#ff0000;stroke-width:0.13266186;stroke-opacity:1" d="M 327.23835,327.55686 C 324.67359,326.9534 324.2292,326.81432 323.48043,326.38075 C 321.93886,325.48812 322.07297,324.21462 323.97119,321.72027 C 326.57984,318.29236 330.49684,314.77528 335.94952,310.96489 C 339.7474,308.31089 340.77539,307.18538 341.19374,305.22318 C 341.50329,303.77128 341.24957,301.25894 340.4402,297.7614 C 339.25612,292.64456 338.78009,289.13786 338.88502,286.30515 C 338.93998,284.82159 339.36574,281.49036 339.59746,280.73079 C 339.62868,280.62838 340.10688,281.28481 340.6601,282.18952 C 341.78956,284.0366 342.74689,285.29765 343.39184,285.78791 C 343.99285,286.24478 344.62338,286.55511 344.95063,286.55511 C 345.33731,286.55511 346.59765,287.21425 347.54033,287.9095 C 350.92877,290.40855 352.52343,293.29083 352.35045,296.60356 C 352.22578,298.9912 351.62323,300.02199 349.12225,302.12606 C 341.68854,308.38 340.23537,310.33476 336.78219,318.72561 C 333.9821,325.52945 332.07964,328.08435 329.82997,328.06202 C 329.5746,328.05949 328.40836,327.83216 327.23833,327.55687 L 327.23835,327.55686 z" id="path2472" />
  <path style="opacity:0.54035088;fill:#9999cc;fill-opacity:1;stroke:#ff0000;stroke-width:0.13266186;stroke-opacity:1" d="M 358.84541,316.10554 C 358.38754,315.18448 358.15534,314.46161 356.96614,310.255 C 355.87478,306.39448 355.30506,304.78959 354.51317,303.34497 C 353.80562,302.0542 353.60468,300.90239 353.37625,296.82825 C 353.27015,294.93567 353.09833,292.99916 352.99446,292.52489 C 352.2995,289.35153 350.65462,287.58523 346.81283,285.88695 C 346.00096,285.52806 345.07345,285.04535 344.75166,284.81427 C 343.30112,283.77257 341.69469,281.1977 340.99592,278.79439 C 340.59994,277.43249 340.46069,276.50517 340.31855,274.28389 C 340.16876,271.94271 339.80339,269.93449 339.18224,268.03829 C 337.96269,264.3153 336.74552,262.4584 334.90856,261.51835 C 333.55048,260.82335 332.63191,260.59006 330.61861,260.4288 C 327.22814,260.15723 325.56758,259.18445 324.96683,257.11794 C 324.45211,255.34737 325.33379,252.14158 326.60108,251.17578 C 327.06042,250.82574 327.1689,250.80306 328.36078,250.80792 C 329.31269,250.81181 329.88031,250.89129 330.62595,251.12509 C 331.92022,251.53093 334.30634,252.48345 336.79472,253.58763 C 343.38126,256.51031 344.27961,256.65662 350.59156,255.83456 C 355.26262,255.22622 358.37808,255.12813 359.10257,255.56662 C 359.6461,255.89556 359.98776,256.53651 360.27582,257.76748 C 360.66002,259.40936 361.26469,261.19375 361.98413,262.80864 L 362.66379,264.33425 L 362.66152,265.92619 C 362.65897,267.71509 362.51964,268.3709 360.92188,274.11437 L 360.04643,277.2614 L 363.22054,281.87509 C 364.96629,284.41262 366.43788,286.56116 366.49074,286.64963 C 366.54357,286.7381 366.02209,288.55888 365.33187,290.69582 C 363.57806,296.12564 362.29099,300.68057 361.55376,304.06648 C 361.15561,305.89517 360.52172,309.93616 360.28438,312.15885 C 359.8409,316.31189 359.74377,316.80201 359.36426,316.80201 C 359.26931,316.80201 359.03583,316.4886 358.84541,316.10554 z" id="path2474" />
  <path style="opacity:0.54035088;fill:#9999cc;fill-opacity:1;stroke:#ff0000;stroke-width:0.13266186;stroke-opacity:1" d="M 284.63565,264.50735 C 284.32391,264.42658 284.07669,264.1916 283.68267,263.60154 C 282.8977,262.42603 282.57409,261.47403 282.50054,260.12388 C 282.44601,259.12299 282.48683,258.80617 282.79949,257.80336 C 283.35977,256.00635 284.10854,254.64459 285.70052,252.52734 C 290.70678,245.86933 296.50889,242.07289 302.1635,241.75529 C 304.41143,241.62903 306.81743,242.07556 308.52236,242.93543 C 311.832,244.60462 317.63,249.51306 319.67156,252.37405 C 320.41438,253.41502 321.0137,254.70389 321.27117,255.81408 C 321.6015,257.23839 321.89892,260.07447 321.7698,260.5687 C 321.65816,260.99598 321.62406,261.01721 321.0649,261.00761 C 320.74172,261.00206 319.94936,260.92948 319.30408,260.84633 C 316.43986,260.47723 311.48718,261.56813 311.841,262.49017 C 312.01286,262.93806 311.31771,262.86603 308.80307,262.17538 C 305.42205,261.24678 299.66138,260.70748 295.73447,260.95193 C 292.79599,261.13486 291.47308,261.5407 287.9681,263.3345 C 285.52604,264.58431 285.27441,264.67288 284.63565,264.50736 L 284.63565,264.50735 z" id="path2476" />
  <path style="opacity:0.54035088;fill:#9999cc;fill-opacity:1;stroke:#ff0000;stroke-width:0.13266186;stroke-opacity:1" d="M 275.88428,254.60239 C 274.5041,253.68973 274.22891,253.41288 273.81998,252.52569 C 273.52479,251.88523 273.51621,251.76201 273.55227,248.68015 C 273.60066,244.54413 273.54212,243.94272 273.04124,243.43033 C 272.54777,242.92552 272.45372,242.56604 272.45372,241.18475 C 272.45372,239.82469 272.73354,239.1341 274.00177,237.3643 C 274.91916,236.08407 278.42484,232.50229 280.29126,230.93826 C 286.79814,225.48561 294.64259,220.91505 299.36829,219.82304 C 300.44808,219.57352 300.88767,219.53629 301.95045,219.60435 C 306.08329,219.86904 313.54336,223.29005 319.14251,227.48825 C 320.67523,228.63749 323.65192,231.55881 324.58245,232.82705 C 326.01097,234.77402 326.293,235.81165 326.22303,238.86317 C 326.17713,240.8654 326.15279,241.03294 325.79379,241.81789 C 325.31886,242.8563 324.40861,243.72676 322.06348,245.38512 C 321.11812,246.05363 320.30707,246.62076 320.26113,246.64541 C 320.21519,246.67005 319.31972,245.90501 318.2712,244.94532 C 312.37121,239.54516 310.6731,238.72865 305.02088,238.57412 C 300.17275,238.44158 296.99928,239.00837 293.34807,240.65893 C 289.10738,242.57598 286.12458,245.13849 281.97273,250.43146 C 280.95405,251.73013 279.60186,253.37472 278.96786,254.08612 C 277.55051,255.67649 277.51708,255.68209 275.88428,254.60239 L 275.88428,254.60239 z" id="path2478" />
  <path style="opacity:0.54035088;fill:#9999cc;fill-opacity:1;stroke:#ff0000;stroke-width:0.13266186;stroke-opacity:1" d="M 345.68307,252.1766 C 343.17601,251.90012 340.88311,251.08756 339.28016,249.90754 C 338.26621,249.1611 336.81142,248.54672 335.07497,248.1316 C 333.5321,247.76276 331.60768,247.25405 330.32746,246.87664 L 329.43199,246.61265 L 329.43837,240.61532 L 329.44474,234.61799 L 330.18427,234.15367 C 333.46827,232.09183 342.61407,218.58438 345.40953,211.66749 C 345.89022,210.47808 346.41271,208.70811 346.41271,208.2691 C 346.41271,207.93233 346.77822,207.6213 347.17397,207.6213 C 348.34441,207.6213 352.36319,210.68545 356.47912,214.71606 C 361.20354,219.34257 364.27455,223.67928 365.54033,227.51178 C 365.90479,228.61529 365.9605,228.97126 365.96733,230.24015 C 365.9742,231.51689 365.93585,231.77929 365.66075,232.33788 C 365.04366,233.59094 364.07927,234.28293 362.30958,234.74258 C 360.84719,235.12241 360.5241,235.34775 360.01055,236.34596 C 359.62385,237.09762 359.61256,237.17248 359.61256,238.98632 C 359.61256,240.68186 359.6464,240.95161 359.98144,241.92705 C 360.18434,242.51772 360.65674,243.53258 361.03125,244.1823 C 362.04306,245.93768 362.06511,245.98719 362.06598,246.5065 C 362.06691,247.0483 361.8403,247.38252 360.81379,248.35335 C 359.55133,249.54734 358.51002,250.19215 356.694,250.90447 C 353.73279,252.06599 349.31167,252.57677 345.68307,252.1766 L 345.68307,252.1766 z" id="path2480" />
  <path style="opacity:0.54035088;fill:#9999cc;fill-opacity:1;stroke:#ff0000;stroke-width:0.0938061;stroke-opacity:1" d="M 273.27643,229.37284 C 272.26654,228.88608 272.11882,225.61728 272.91273,221.32468 C 273.40117,218.68377 273.9947,216.66675 275.78236,211.57276 L 276.81711,208.62422 L 276.56022,208.34471 C 276.41894,208.19098 275.6745,207.40824 274.90593,206.60529 C 272.69552,204.29605 271.91271,203.20064 271.59912,201.978 C 271.27884,200.72925 271.58349,199.52291 272.95502,196.60904 C 273.84953,194.7086 274.14951,193.8459 274.37408,192.52803 C 274.55991,191.43752 274.84349,190.78019 275.53,189.84863 C 278.09056,186.37411 284.58909,182.39905 289.84734,181.09092 C 291.47598,180.68575 292.21772,180.583 293.57006,180.57523 C 294.75444,180.56843 294.81449,180.57772 295.34391,180.84961 C 296.2243,181.30176 296.56755,181.91463 297.2353,184.22663 C 298.29458,187.89423 298.0767,188.84376 294.70606,195.24885 C 292.3964,199.6378 291.83407,201.03348 291.54109,203.10414 C 291.40515,204.06489 291.46078,206.78465 291.6929,210.52734 C 291.98739,215.27575 291.68055,216.98863 290.28691,218.37592 C 289.59301,219.06665 288.69521,219.5453 286.95034,220.15478 C 283.96893,221.19616 281.70675,222.73321 278.18338,226.11151 C 276.68264,227.55045 275.08509,228.83967 274.34359,229.21021 C 273.7444,229.50962 273.60445,229.53095 273.27643,229.37284 L 273.27643,229.37284 z" id="path2482" />
  <path style="opacity:0.54035088;fill:#9999cc;fill-opacity:1;stroke:#ff0000;stroke-width:0.0938061;stroke-opacity:1" d="M 309.48063,217.99089 C 309.20612,217.91702 308.10859,217.56178 307.04167,217.20147 C 304.47619,216.33508 303.42575,216.1472 301.06815,216.13307 C 299.47998,216.12354 299.07885,216.1555 297.38568,216.42641 C 296.3406,216.59363 295.46468,216.73045 295.43921,216.73045 C 295.34691,216.73045 295.3955,208.76299 295.49389,207.7648 C 295.80072,204.65193 296.76384,200.82002 297.96774,197.92232 C 299.30891,194.6942 301.11897,192.14472 302.56905,191.44131 C 303.11883,191.17462 303.16563,191.16843 304.58588,191.17461 C 305.73648,191.17962 306.22064,191.22364 306.90617,191.38558 C 308.28723,191.71183 309.52528,192.13567 310.64498,192.66556 C 312.33178,193.46383 313.17592,194.12625 313.71514,195.0748 C 313.85136,195.31443 314.09592,195.62249 314.2586,195.75938 C 314.89979,196.2989 315.23294,196.39556 317.24151,196.62477 C 317.52992,196.65768 317.73615,196.75273 317.9216,196.93818 C 318.5001,197.51668 318.1929,198.50917 316.38292,201.90908 C 315.1076,204.30469 314.49035,206.29935 314.2929,208.66312 C 314.08573,211.14318 313.7634,212.9742 313.16955,215.04454 C 312.64603,216.86964 312.21287,217.68819 311.60255,218.00574 C 311.27568,218.17581 310.13823,218.16784 309.48063,217.99088 L 309.48063,217.99089 z" id="path2486" />
  <path style="opacity:0.54035088;fill:#9999cc;fill-opacity:1;stroke:#ff0000;stroke-width:0.0938061;stroke-opacity:1" d="M 327.98847,230.24352 C 327.62479,230.09603 326.99396,229.33664 325.95824,227.79957 C 324.66605,225.88185 324.16642,225.26237 322.99994,224.13156 C 321.75936,222.92893 320.54135,222.0339 319.07893,221.2503 C 316.51193,219.87485 315.37294,219.0959 315.37404,218.71655 C 315.37488,218.42504 316.17979,216.78635 317.10986,215.18265 C 318.45312,212.86651 318.8977,212.03415 319.25373,211.1689 C 320.11597,209.0734 320.51493,206.8466 321.0472,201.15863 C 321.45804,196.76841 321.67124,195.28622 322.18738,193.23202 C 322.79162,190.82716 323.80384,189.06158 324.79416,188.68506 C 325.21289,188.52586 325.81763,188.57311 326.26264,188.7998 C 326.49067,188.91595 328.04913,190.02806 329.72592,191.27115 C 334.045,194.47313 336.22257,195.95091 339.32368,197.78454 C 340.70491,198.60124 341.36093,199.21072 341.77533,200.06226 C 342.57054,201.69633 342.41129,203.74017 341.06494,209.17906 C 340.08717,213.12897 339.20833,215.19805 337.65829,217.19948 C 337.39856,217.53483 336.27792,218.73889 335.16796,219.87515 C 332.51262,222.59342 331.42237,224.12571 331.27701,225.3437 C 331.109,226.75155 330.45512,228.15199 329.34035,229.49153 C 328.9586,229.95026 328.39017,230.36808 328.20458,230.32639 C 328.19003,230.32312 328.09278,230.28583 327.98847,230.24353 L 327.98847,230.24352 z" id="path2488" />
  <path style="opacity:0.54035088;fill:#ffff00;fill-opacity:1;stroke:#ff0000;stroke-width:0.13266186;stroke-opacity:1" d="M 279.52155,181.53861 C 279.40689,181.42395 279.31308,181.21084 279.31308,181.06503 C 279.31308,180.62233 278.55688,179.66752 277.60438,178.90754 C 276.04393,177.66247 275.52817,176.86192 275.34459,175.39988 C 275.20999,174.3279 274.91116,173.68941 274.46457,173.51962 C 274.28564,173.45159 274.14058,173.29001 274.14218,173.1605 C 274.14706,172.76633 274.60288,171.88695 275.47337,170.59235 C 277.39398,167.736 277.76211,166.22021 278.25761,159.12823 C 279.16531,146.13667 278.32755,134.35277 275.97193,126.97779 C 275.01478,123.98116 274.20271,122.49563 272.22619,120.12564 C 269.69874,117.09504 268.39838,114.48558 268.63368,112.91646 C 268.68366,112.58316 268.95124,111.8596 269.2283,111.30855 C 269.91811,109.93659 270.14116,109.12587 270.35872,107.19982 C 270.50897,105.86971 270.62332,105.39127 270.9492,104.72931 C 271.87229,102.85424 273.82473,101.775 277.19049,101.27934 C 278.85393,101.03437 282.03137,101.07178 283.69092,101.35588 C 286.73517,101.87701 289.3158,102.87111 291.09359,104.2075 C 292.21437,105.05 292.7584,105.80182 293.18679,107.10014 C 293.66053,108.53589 294.08052,109.35414 295.23364,111.08789 C 296.81144,113.46016 297.30667,115.12325 297.19033,117.65884 C 297.08417,119.97243 296.39416,121.23358 295.11636,121.44947 C 294.13792,121.61477 293.3145,122.88294 292.35816,125.69744 C 291.01785,129.64198 290.39946,133.42641 290.39638,137.70333 C 290.39368,141.43897 290.70608,143.389 291.34004,143.5938 C 291.77581,143.73459 292.22547,144.59696 292.85984,146.50856 C 293.68264,148.98797 294.80057,151.64079 297.43423,157.36356 C 300.458,163.93402 300.84874,165.23906 300.55019,167.77052 C 300.22739,170.50766 299.332,173.83082 298.4426,175.5927 C 297.8392,176.78804 297.3551,177.04389 297.3551,176.16745 C 297.3551,175.95286 297.32132,175.77729 297.28004,175.77729 C 297.01893,175.77729 296.6005,176.1782 295.8968,177.10261 C 295.38052,177.78082 294.86973,178.28928 294.46662,178.52623 C 293.75693,178.94341 293.17484,178.9737 289.79337,178.76936 C 287.57066,178.63504 286.77527,178.80275 285.53126,179.66803 C 283.26422,181.24487 280.18596,182.20301 279.52155,181.5386 L 279.52155,181.53861 z" id="path2492" />
  <path style="opacity:0.54035088;fill:#ffff00;fill-opacity:1;stroke:#ff0000;stroke-width:0.18761221;stroke-opacity:1" d="M 315.83437,192.10511 C 315.52481,191.96354 314.55391,191.24453 313.67683,190.50731 C 311.10142,188.3426 309.78061,187.80221 305.92974,187.33768 C 303.61617,187.0586 302.51876,186.44634 301.89654,185.08752 C 301.31111,183.80907 301.12547,182.22488 301.31737,180.14522 C 301.57638,177.33821 302.24413,175.53567 304.17848,172.4218 C 306.6175,168.49553 307.5471,166.45875 308.30896,163.3718 C 309.41542,158.8886 309.73712,154.12845 309.73646,142.24958 C 309.73574,129.37238 309.3538,122.27167 308.41372,117.65864 C 307.84066,114.84663 307.43176,114.01488 306.37684,113.5155 C 305.59434,113.14508 305.5102,113.0408 305.45555,112.37382 C 305.39053,111.58014 305.79872,110.3357 306.32144,109.73402 C 306.50073,109.52765 307.1134,108.96672 307.68292,108.48752 C 308.74842,107.591 309.18409,106.91082 309.52831,105.60655 C 309.77776,104.66134 310.74276,103.47996 311.53617,103.14845 C 312.39329,102.79032 313.40439,103.13082 315.37902,104.44258 C 318.00174,106.18486 319.02769,107.08609 319.51486,108.07565 C 319.93898,108.93715 319.96154,109.16584 319.95606,112.5482 C 319.94943,116.64778 319.76451,117.44489 318.28437,119.75404 C 316.53617,122.48141 316.64904,121.86758 316.6648,128.56191 C 316.67927,134.70781 316.54918,140.30935 316.00187,157.1061 L 315.68094,166.95574 L 317.61872,170.13782 C 319.80284,173.7244 321.32752,176.83241 321.85598,178.77531 C 322.31274,180.45464 322.31503,183.17991 321.86109,184.87271 C 321.44729,186.41584 320.0975,189.22422 319.26521,190.27372 C 318.62096,191.08612 316.97065,192.38341 316.5987,192.36985 C 316.48788,192.36581 316.14393,192.24668 315.83437,192.10511 L 315.83437,192.10511 z" id="path2494" />
  <path style="opacity:0.54035088;fill:#ffff00;fill-opacity:1;stroke:#ff0000;stroke-width:0.18761221;stroke-opacity:1" d="M 340.1475,193.59703 C 339.48632,193.24076 337.98366,192.20846 336.80825,191.30304 C 333.00963,188.37697 331.98481,187.75492 330.23115,187.31081 C 327.94376,186.73155 326.43446,183.3871 326.43446,178.89775 C 326.43446,175.45815 327.00896,173.38642 329.37487,168.29428 C 331.05891,164.66965 332.23863,161.22695 332.88725,158.04416 C 334.612,149.58062 334.73596,136.23158 333.18414,126.06944 C 332.67335,122.72451 332.06237,120.38594 331.02398,117.80135 C 330.56795,116.66629 330.10314,115.13236 329.99106,114.3926 C 329.58265,111.69692 330.47206,108.50538 332.04999,107.00432 C 333.08244,106.02217 334.8189,105.55898 336.21386,105.89363 C 337.44377,106.18868 338.94877,106.84296 340.35027,107.69189 C 341.92845,108.64783 342.19388,109.31033 342.19388,112.29321 C 342.19388,115.11069 341.76138,117.71611 340.71518,121.20093 C 339.79933,124.25155 339.4469,126.43937 339.19259,130.65278 C 338.68792,139.01385 338.43241,164.57973 338.81851,168.08142 C 339.10412,170.6718 339.32979,171.43747 340.64323,174.27262 C 342.7918,178.91039 342.95973,179.6529 342.94945,184.46795 C 342.93758,190.02724 342.29334,194.27895 341.46737,194.24906 C 341.40261,194.24672 340.80867,193.9533 340.1475,193.59703 L 340.1475,193.59703 z" id="path2496" />
  <path style="opacity:0.54035088;fill:#ffff00;fill-opacity:1;stroke:#ff0000;stroke-width:0.18761221;stroke-opacity:1" d="M 361.6042,214.77975 C 361.29879,214.62276 359.0227,212.44229 356.54622,209.93426 C 352.11472,205.44631 350.13823,203.7314 349.16167,203.52703 C 348.06759,203.29805 347.4556,202.88585 347.03199,202.09254 C 346.66243,201.40051 346.60311,201.01495 346.60521,199.31885 C 346.60735,197.60782 346.67819,197.16399 347.14441,195.94183 C 348.68283,191.90882 348.64014,192.09743 348.60896,189.46921 C 348.5823,187.22401 348.61692,186.9544 349.04443,186.07545 C 349.29986,185.55031 350.06331,184.495 350.74101,183.7303 C 352.74733,181.4664 353.64813,180.1878 354.49623,178.40009 C 356.71454,173.72407 357.67264,166.61492 358.13722,151.38393 C 358.48042,140.13228 357.90038,131.06803 356.17429,120.70933 C 355.25786,115.20971 355.31135,114.78483 357.0475,113.77128 C 357.95079,113.24394 358.17364,113.19344 359.3604,113.24717 C 361.1251,113.32705 362.84623,114.13345 364.2516,115.53881 C 365.50688,116.79408 366.135,118.11269 366.31248,119.86508 C 366.513,121.84489 366.64236,122.08853 367.41617,121.94336 C 367.78167,121.87479 368.10555,121.90511 368.17298,122.0142 C 368.36331,122.32217 367.74591,124.49222 366.37139,128.3465 C 363.18187,137.29019 361.62407,146.63152 361.13981,159.71757 C 360.76612,169.81578 361.41053,177.32011 363.2999,184.87271 C 364.63335,190.20295 364.92385,193.55965 364.80494,202.26236 L 364.725,208.11386 L 364.14348,210.14207 C 363.19936,213.43499 362.83445,214.45437 362.48731,214.76852 C 362.19218,215.03562 362.10412,215.03674 361.6042,214.77975 L 361.6042,214.77975 z" id="path2498" />
  <path style="opacity:0.54035088;fill:#ffff00;fill-opacity:1;stroke:#ff0000;stroke-width:0.18761221;stroke-opacity:1" d="M 375.37537,234.91734 C 374.74109,234.37756 374.03263,233.28987 370.57955,227.55449 C 365.52768,219.16359 365.45207,218.8956 366.88155,214.44947 C 367.8191,211.5334 368.0714,209.38496 368.27294,202.60206 C 368.46561,196.11658 368.54531,195.28557 369.3864,190.99227 C 370.70227,184.27547 372.86747,167.04437 373.63266,157.19991 C 373.97839,152.75207 373.90723,150.05096 373.33019,145.71764 C 372.42586,138.92671 372.76383,130.27803 374.03511,127.67799 C 374.3541,127.02556 374.41014,126.99574 375.26202,127.02485 C 376.73916,127.07532 379.46307,128.76357 381.75965,131.05201 C 384.14889,133.43279 384.24268,135.27874 382.36852,143.03519 C 380.87485,149.21687 380.29959,153.13556 379.43534,163.01589 C 379.1736,166.0083 378.52155,172.55128 377.98635,177.55583 C 377.06581,186.16361 377.01306,186.92859 377.00893,191.72056 C 377.00475,196.5931 377.02411,196.86866 377.51734,198.95367 C 377.79936,200.14584 378.49863,202.63639 379.07126,204.48823 C 381.34142,211.8297 381.45176,212.74751 380.44891,215.94636 C 379.61486,218.60681 379.63261,219.73281 380.54671,222.14653 C 381.02454,223.40826 381.22775,224.20381 381.15064,224.51099 C 381.08674,224.7656 380.52225,225.47206 379.89621,226.08089 C 378.49154,227.44699 378.33856,227.97168 378.61879,230.46248 C 378.87569,232.74586 378.66016,233.65134 377.6252,234.63685 C 376.76162,235.45915 376.10779,235.54067 375.37535,234.91733 L 375.37537,234.91734 z" id="path2500" />
  <path style="opacity:0.54035088;fill:#66cc33;fill-opacity:1;stroke:#ff0000;stroke-width:0.18761221;stroke-opacity:1" d="M 292.11157,101.21745 C 291.89973,101.09212 291.36303,100.59041 290.9189,100.10254 C 289.17296,98.184636 286.7163,97.595641 279.27008,97.309701 C 276.43245,97.20074 273.8638,97.051723 273.56198,96.978566 C 272.77192,96.787062 272.25588,96.024847 272.41764,95.288326 C 272.58654,94.519375 274.16461,92.808284 275.59753,91.840426 C 278.48497,89.890108 279.15163,89.052297 279.52701,86.902062 C 279.6716,86.073777 280.13106,84.261225 280.54801,82.874165 C 280.96498,81.487111 281.44509,79.809929 281.61496,79.1471 C 282.535,75.557006 282.70407,70.098719 282.06536,64.605526 C 281.21978,57.333134 282.12006,55.053935 285.83651,55.058229 C 287.26254,55.059877 287.71263,55.232589 287.71263,55.778137 C 287.71263,57.07274 291.14399,58.259014 295.87377,58.599566 C 297.82758,58.740245 298.62253,59.016065 299.07811,59.711367 C 299.89308,60.955168 299.24557,63.108634 296.22711,69.192999 C 292.03621,77.640708 291.69664,79.969401 293.44541,88.269084 C 293.80688,89.984636 294.11862,91.927863 294.13816,92.587356 C 294.1721,93.732724 294.14664,93.807606 293.56974,94.259102 C 292.8213,94.84485 292.8035,95.264608 293.43481,97.443105 C 294.0867,99.692647 294.02571,100.56086 293.16965,101.21813 C 292.79664,101.50451 292.59659,101.50438 292.11158,101.21745 L 292.11157,101.21745 z" id="path2504" />
  <path style="opacity:0.54035088;fill:#66cc33;fill-opacity:1;stroke:#ff0000;stroke-width:0.18761221;stroke-opacity:1" d="M 317.82439,102.09234 C 314.13995,99.110859 312.79023,98.928493 309.64124,100.98668 C 308.77627,101.55202 307.96464,102.01613 307.83763,102.01802 C 307.47312,102.02344 307.36182,101.21733 307.45542,99.249081 C 307.55454,97.164247 307.87068,96.125786 308.93627,94.384834 C 309.85468,92.884327 310.59376,91.047617 311.43361,88.178576 C 313.39967,81.462231 313.53882,79.32848 312.29265,75.005293 C 310.5784,69.058226 309.75808,65.031871 309.54854,61.536239 C 309.43802,59.692405 309.45953,59.488735 309.81054,59.058255 C 310.12286,58.675196 310.35932,58.589266 311.10067,58.589449 C 312.20907,58.589725 313.1596,58.964462 313.28694,59.451349 C 313.43594,60.021193 314.61202,60.387 316.86843,60.565331 C 319.16606,60.74692 320.04548,60.951558 320.57062,61.426803 C 321.05318,61.863515 321.0092,62.521278 320.474,62.871955 C 319.74791,63.34771 319.71973,63.968809 320.35254,65.549185 C 320.66465,66.328607 320.92,67.197893 320.92,67.480929 C 320.92,68.281526 320.42954,69.745787 319.39015,72.048325 C 318.86562,73.210315 318.22258,74.96308 317.96118,75.943354 C 317.53217,77.552149 317.4841,78.090977 317.46754,81.477914 C 317.45142,84.768844 317.50305,85.470848 317.88741,87.187889 C 318.53377,90.075429 319.291,91.985348 320.77124,94.461699 C 322.51348,97.376358 322.86272,98.170734 322.7186,98.891349 C 322.59475,99.510588 319.82468,103.33532 319.5129,103.31757 C 319.40972,103.31169 318.64989,102.76034 317.82439,102.09235 L 317.82439,102.09234 z" id="path2506" />
  <path style="opacity:0.54035088;fill:#66cc33;fill-opacity:1;stroke:#ff0000;stroke-width:0.18761221;stroke-opacity:1" d="M 341.83876,105.21724 C 341.63238,105.13064 341.12583,104.70657 340.71308,104.27486 C 339.51676,103.02357 338.37694,102.53259 336.43961,102.43404 C 334.99352,102.36049 334.62355,102.41198 333.40517,102.85634 C 331.69049,103.48172 330.98117,103.44806 330.89909,102.73745 C 330.82847,102.12597 331.18544,101.40875 332.37357,99.775241 C 334.33451,97.079177 335.93931,92.931487 336.69462,88.607178 C 337.02382,86.722337 337.12292,85.42229 337.13068,82.885005 C 337.14224,79.114418 336.88788,77.578135 335.74834,74.536262 C 334.53226,71.290029 334.14585,69.129145 334.62229,68.238919 C 334.83913,67.833724 335.59793,67.759454 336.40106,68.064806 C 336.67413,68.168636 337.92492,68.338712 339.18055,68.442758 C 341.62225,68.645083 342.80027,68.968466 343.36357,69.591065 C 343.96759,70.258621 343.66193,73.071924 342.37968,78.647285 C 341.14215,84.028252 340.62455,88.074344 340.62128,92.392749 C 340.61789,96.88384 341.0732,99.158762 342.25751,100.56795 C 343.46851,102.00891 344.31923,104.50187 343.80953,105.11603 C 343.55648,105.42094 342.45857,105.47732 341.83876,105.21724 L 341.83876,105.21724 z" id="path2508" />
  <path style="opacity:0.54035088;fill:#66cc33;fill-opacity:1;stroke:#ff0000;stroke-width:0.18761221;stroke-opacity:1" d="M 364.84866,113.22182 C 364.60576,113.10852 363.99142,112.39992 363.48345,111.64715 C 362.16451,109.69256 362.05007,109.63817 359.59211,109.79748 C 357.17065,109.95442 356.33264,109.71805 355.93194,108.76508 C 355.61428,108.00956 355.81376,106.87087 356.40169,106.08388 C 359.00642,102.59713 359.75659,100.21039 359.75462,95.41603 C 359.75306,91.626271 358.79785,85.800765 357.40766,81.102689 C 356.35989,77.561762 356.09682,73.842975 356.82376,72.848823 C 357.04369,72.54803 357.1463,72.560949 358.36068,73.042374 C 360.52199,73.8992 363.19548,75.311059 363.73055,75.878187 C 364.55107,76.747874 364.65627,77.302801 364.66677,80.817221 C 364.6778,84.503178 364.62497,85.450173 363.94938,93.672707 C 363.65374,97.270811 363.49979,100.31628 363.54566,101.6589 L 363.61982,103.82911 L 364.99774,106.70144 C 366.19197,109.19081 366.38586,109.73941 366.45205,110.81623 C 366.53372,112.14472 366.32397,112.77826 365.66551,113.19203 C 365.38422,113.36878 365.17972,113.37624 364.84866,113.22182 z" id="path2510" />
  <path style="opacity:0.54035088;fill:#66cc33;fill-opacity:1;stroke:#ff0000;stroke-width:0.18761221;stroke-opacity:1" d="M 381.45319,126.73936 C 380.98108,126.404 380.08437,125.68945 379.4605,125.15147 C 378.05217,123.93698 377.21799,123.67811 375.61336,123.95754 C 374.18074,124.20701 373.82664,124.21097 373.82664,123.97748 C 373.82664,123.87726 374.21546,123.13854 374.6907,122.33587 C 378.0266,116.70161 378.52357,113.11498 377.01468,105.56388 C 376.11339,101.05357 375.89718,99.600186 375.89366,98.028665 C 375.887,95.059758 376.74153,94.423929 379.70935,95.189582 C 381.16736,95.565733 382.1721,96.124589 382.43748,96.707018 C 382.80503,97.513709 382.66013,98.905073 381.90149,101.85402 C 380.76919,106.25537 380.53559,107.98661 380.5246,112.0587 C 380.51021,117.40679 381.13258,120.22457 382.8676,122.66632 C 383.34124,123.33289 383.86838,124.29308 384.03903,124.80007 C 384.7955,127.04766 383.38085,128.10861 381.45319,126.73936 z" id="path2512" />
  <path style="opacity:0.54035088;fill:#0099ff;fill-opacity:1;stroke:#ff0000;stroke-width:0.03316547;stroke-opacity:1" d="M 317.98898,57.416846 C 317.60078,57.322211 317.18556,57.0025 316.88585,56.567444 C 316.65835,56.237228 316.2074,56.009477 315.38549,55.809698 C 314.31461,55.549401 314.05944,55.530016 311.41895,55.508361 L 309.12726,55.489567 L 309.63779,54.710178 C 310.88581,52.804912 311.06906,52.513356 311.27419,52.106689 C 311.52162,51.616151 311.72098,51.085897 311.8665,50.531329 C 312.05343,49.818955 312.08197,49.585908 312.08382,48.756977 C 312.0854,48.053007 312.07796,47.951963 311.98743,47.446941 C 311.9019,46.969799 311.88919,46.819003 311.88817,46.269567 C 311.88717,45.72902 311.89793,45.590472 311.96385,45.295149 C 312.11392,44.622839 312.36552,44.048712 312.75769,43.483668 C 313.01779,43.10891 313.15089,42.952223 313.67747,42.400924 C 314.73294,41.295912 315.76734,40.49037 316.09075,40.521585 C 316.1951,40.531657 316.198,40.536162 316.1962,40.68577 C 316.19475,40.805771 316.15199,40.922192 316.00176,41.215194 C 315.81687,41.575772 315.81001,41.598131 315.83025,41.774422 C 315.85837,42.019573 316.09126,42.485666 316.37224,42.859172 C 316.69345,43.286158 317.21268,43.805561 317.87732,44.364759 C 319.44625,45.684791 320.229,46.911752 320.28534,48.139338 C 320.31016,48.680251 320.22513,49.010145 319.95947,49.403704 C 319.81066,49.624156 319.69113,49.740652 319.36773,49.980445 C 318.94923,50.290757 318.85068,50.50404 318.87568,51.045394 C 318.89368,51.435304 319.03067,51.887303 319.28327,52.390265 C 319.79888,53.416903 320.01597,54.165397 320.05241,55.042206 C 320.07662,55.624411 320.01924,55.931333 319.80449,56.368451 C 319.67918,56.62354 319.59896,56.734637 319.38316,56.952005 C 318.94173,57.396632 318.50432,57.542472 317.98898,57.416846 L 317.98898,57.416846 z" id="path2520" />
  <path style="opacity:0.54035088;fill:#0099ff;fill-opacity:1;stroke:#ff0000;stroke-width:0.03316547;stroke-opacity:1" d="M 337.40736,65.387027 C 337.02239,65.353281 336.66844,65.242243 336.18024,65.002065 C 335.78959,64.809881 335.70291,64.75171 335.50035,64.545838 C 335.15814,64.198026 334.87526,63.661415 334.606,62.849249 C 334.09233,61.299918 333.93228,59.412349 334.26381,58.813638 C 334.39251,58.581214 334.44284,58.567195 335.29346,58.526848 C 337.77792,58.409006 339.07925,58.561699 339.96509,59.075 C 340.22129,59.223456 340.6983,59.698245 340.85007,59.955859 C 341.16243,60.486076 341.45734,61.352285 341.52667,61.943185 C 341.58762,62.462719 341.49279,62.943939 341.24665,63.364115 C 341.00632,63.774368 340.23866,64.422993 339.48301,64.85426 C 338.74983,65.272708 338.07607,65.445647 337.40736,65.387028 L 337.40736,65.387027 z" id="path2522" />
  <path style="opacity:0.54035088;fill:#0099ff;fill-opacity:1;stroke:#ff0000;stroke-width:0.03316547;stroke-opacity:1" d="M 362.12966,71.311134 C 361.73762,71.22383 361.26711,70.94987 360.19204,70.182921 C 359.48627,69.679431 359.28714,69.555678 358.85935,69.35471 C 358.11343,69.004282 357.60682,68.924435 357.18947,69.091513 C 356.90075,69.207093 356.76925,69.188022 356.60652,69.006971 C 356.43209,68.812909 356.36106,68.546249 356.36292,68.092444 C 356.36514,67.546048 356.48457,67.261256 356.77188,67.117228 C 357.06889,66.968328 357.44747,67.016305 358.31819,67.31319 C 358.98033,67.538961 359.22213,67.585158 359.29324,67.499481 C 359.33101,67.453964 359.32478,67.419679 359.2515,67.269911 C 359.16387,67.090778 358.875,66.687253 358.53453,66.268343 C 357.8466,65.421906 357.51085,64.81567 357.49938,64.399218 C 357.48983,64.052922 357.65512,63.919925 358.08894,63.924828 C 358.5669,63.93023 359.19549,64.13583 360.09268,64.580209 C 361.09582,65.077062 361.70733,65.590293 362.22231,66.367578 C 362.67361,67.048738 362.91778,67.763031 363.00981,68.671327 C 363.05533,69.120595 363.0566,70.225934 363.01194,70.518039 C 362.90801,71.19777 362.65239,71.427543 362.12966,71.311134 L 362.12966,71.311134 z" id="path2524" />
  <path style="opacity:0.54035088;fill:#0099ff;fill-opacity:1;stroke:#ff0000;stroke-width:0.03316547;stroke-opacity:1" d="M 381.4292,92.245195 C 381.30853,92.156141 381.23053,92.063062 380.96301,91.68885 C 380.71289,91.338972 380.50921,91.145988 380.19865,90.964608 C 379.72896,90.690294 379.23224,90.550322 378.54912,90.499784 C 377.94358,90.454985 377.69029,90.357716 377.43058,90.070248 C 377.06936,89.670419 376.90476,89.022262 376.85642,87.809313 C 376.83455,87.2604 376.87723,86.350194 376.94273,85.96863 C 377.0297,85.461987 377.20611,85.131613 377.44842,85.021605 C 377.67814,84.917313 377.8645,84.937809 378.40002,85.126257 C 379.49993,85.513304 380.23948,85.728484 381.0697,85.903022 C 381.66934,86.029086 381.81798,86.090404 382.03314,86.300466 C 382.24297,86.505327 382.38402,86.777726 382.4702,87.144569 C 382.56635,87.553796 382.54988,88.631491 382.43396,89.517335 C 382.21838,91.164675 382.03648,91.947466 381.80909,92.206456 C 381.69017,92.341895 381.57601,92.353537 381.4292,92.245195 z" id="path2526" />
  <path style="opacity:0.54035088;fill:#ff3300;fill-opacity:1;stroke:#ff0000;stroke-width:0.13266186;stroke-opacity:1" d="M 295.51715,55.116784 C 293.61024,54.895721 291.28991,54.452385 290.35331,54.130147 C 289.94256,53.988827 289.2492,53.652672 288.81251,53.383129 C 287.94939,52.850378 286.94349,52.535213 286.10241,52.534004 C 285.13924,52.532622 284.02017,52.290013 283.83185,52.04176 C 283.58211,51.712536 283.60335,50.759497 283.9038,48.813173 C 284.4251,45.436207 284.92619,43.706369 285.54507,43.147209 C 285.95311,42.778544 286.61681,42.585255 287.47774,42.584364 C 288.73148,42.583068 289.76891,42.348756 290.7779,41.838997 C 292.7898,40.822549 294.38952,38.390481 294.38952,36.348201 C 294.38952,35.370988 295.00511,34.484368 296.92426,32.697472 C 297.89098,31.797384 298.12766,31.274544 297.92068,30.496345 C 297.75567,29.875936 298.00332,29.24519 298.51602,28.980065 C 298.83819,28.813462 298.9648,28.811922 299.4209,28.969058 C 301.09775,29.546781 303.68703,32.70645 304.22083,34.826348 C 304.49152,35.901337 303.82806,37.39935 302.43112,38.867337 C 301.1655,40.197321 300.53708,41.723033 300.39814,43.803168 C 300.2566,45.922244 300.6938,47.294529 301.92479,48.594968 C 302.9699,49.69904 303.14521,49.984316 303.14521,50.580951 C 303.14521,51.228366 302.87438,51.746261 302.10289,52.574156 C 301.032,53.723327 299.48279,54.740738 298.24581,55.107203 C 297.4348,55.347469 297.50497,55.347223 295.51715,55.116782 L 295.51715,55.116784 z" id="path2530" />
  <path style="opacity:0.54035088;fill:#ff3300;fill-opacity:1;stroke:#ff0000;stroke-width:0.13266186;stroke-opacity:1" d="M 318.73293,42.003292 C 318.11221,41.732771 317.96525,41.478548 318.07027,40.856977 C 318.15685,40.344523 318.13117,40.284207 317.61911,39.797092 C 317.21768,39.415222 316.80029,39.193442 316.01789,38.946281 C 314.61354,38.502648 314.14915,38.295357 313.79132,37.952395 C 313.13827,37.326473 313.58,36.744754 315.20608,36.089278 C 315.77716,35.859078 316.41179,35.496021 316.61636,35.282491 C 316.99466,34.887634 317.00622,34.82152 316.93547,33.457605 C 316.89038,32.58845 317.58742,31.941252 319.04506,31.498866 C 320.36326,31.098795 320.93546,31.34336 321.46021,32.531126 C 321.68008,33.028819 321.77211,33.490534 321.77713,34.121199 C 321.78385,34.966163 321.76047,35.034758 321.3024,35.514149 C 321.03741,35.791472 320.75385,36.148766 320.67226,36.308138 C 320.46477,36.713422 320.4875,38.364624 320.72207,39.92633 C 320.92334,41.266373 320.85923,41.843338 320.48245,42.08292 C 320.23261,42.241778 319.16906,42.193368 318.73292,42.00329 L 318.73293,42.003292 z" id="path2532" />
  <path style="opacity:0.54035088;fill:#ff3300;fill-opacity:1;stroke:#ff0000;stroke-width:0.13266186;stroke-opacity:1" d="M 338.10161,55.930342 C 335.71438,55.478354 335.0758,55.269341 334.66137,54.804316 C 334.23008,54.320385 334.49632,53.905731 335.6435,53.274634 C 336.21147,52.962181 336.71967,52.577845 336.83385,52.374413 C 337.01708,52.047974 337.00833,51.962789 336.72515,51.315299 C 335.80063,49.201406 335.98718,48.579714 338.60095,45.064157 L 339.66746,43.629659 L 340.12433,44.46718 C 341.55515,47.090198 341.70393,48.127585 340.96462,50.325875 C 340.38778,52.041069 340.42522,52.726789 341.15554,53.822256 C 341.55123,54.415792 341.66981,54.725273 341.67577,55.179945 C 341.68264,55.704862 341.63449,55.802173 341.23271,56.075413 C 340.98479,56.244018 340.6863,56.376427 340.5694,56.369656 C 340.45251,56.362884 339.342,56.165193 338.10161,55.930343 L 338.10161,55.930342 z" id="path2534" />
  <path style="opacity:0.54035088;fill:#ff3300;fill-opacity:1;stroke:#ff0000;stroke-width:0.13266186;stroke-opacity:1" d="M 360.58854,61.024759 C 359.45801,60.370733 358.51361,59.77742 358.48991,59.706281 C 358.46619,59.635145 358.75159,58.878371 359.12415,58.024567 C 359.4967,57.170766 359.80884,56.276853 359.81781,56.038099 C 359.83446,55.595351 359.49495,54.922686 359.25483,54.922686 C 359.18176,54.922686 359.06323,54.768249 358.99146,54.579492 C 358.78881,54.046473 359.22875,53.232318 360.35313,52.059583 C 361.21835,51.157144 361.3774,51.045131 361.68422,51.122137 C 362.28014,51.271701 364.037,53.831356 364.037,54.550004 C 364.037,54.695033 363.76737,55.075751 363.4378,55.396047 C 363.10824,55.716345 362.7799,56.13279 362.70816,56.321485 C 362.48859,56.899021 362.56126,58.141962 362.92453,60.021651 C 363.28469,61.885416 363.27795,62.220864 362.88038,62.216488 C 362.75039,62.215057 361.71907,61.678778 360.58854,61.024756 L 360.58854,61.024759 z" id="path2536" />
  <path style="opacity:0.54035088;fill:#ff3300;fill-opacity:1;stroke:#ff0000;stroke-width:0.13266186;stroke-opacity:1" d="M 378.93738,81.18584 C 377.78414,80.599988 376.7685,80.047783 376.68042,79.958719 C 376.5549,79.831771 376.79211,79.567506 377.77852,78.735491 C 379.7541,77.069114 380.18788,76.282954 380.0111,74.689304 C 379.84531,73.194914 379.86746,71.852124 380.06394,71.485572 C 380.69027,70.317082 381.80166,70.960569 382.2749,72.765707 C 382.78244,74.701611 383.08619,80.164055 382.74989,81.307511 C 382.36474,82.616997 381.71373,82.596226 378.93738,81.185842 L 378.93738,81.18584 z" id="path2538" />
  <path style="fill:none;fill-rule:evenodd;stroke:#000000;stroke-width:1px;stroke-linecap:butt;stroke-linejoin:miter;stroke-opacity:1" d="M 306.18359,3.0371341 L 399.04689,41.243752 L 399.04689,41.243752" id="path2471" />
</svg>