<?xml version='1.0' encoding='utf-8'?>
<svg xmlns="http://www.w3.org/2000/svg" xmlns:ns1="http://www.inkscape.org/namespaces/inkscape" xmlns:ns2="http://sodipodi.sourceforge.net/DTD/sodipodi-0.dtd" viewBox="39 22 203 253" version="1.1" id="svg1" ns1:version="1.3 (0e150ed6c4, 2023-07-21)" ns2:docname="腎臓.svg">
  <ns2:namedview id="namedview1" pagecolor="#ffffff" bordercolor="#000000" borderopacity="0.25" ns1:showpageshadow="2" ns1:pageopacity="0.0" ns1:pagecheckerboard="0" ns1:deskcolor="#d1d1d1" ns1:document-units="mm" ns1:zoom="0.4894542" ns1:cx="539.37631" ns1:cy="491.36365" ns1:window-width="1920" ns1:window-height="991" ns1:window-x="-9" ns1:window-y="-9" ns1:window-maximized="1" ns1:current-layer="layer1" />
  <defs id="defs1" />
  <g ns1:label="Layer 1" ns1:groupmode="layer" id="layer1">
    <path style="fill:#fccae8;fill-opacity:1;stroke:none;stroke-width:1;stroke-opacity:1" d="m 140.42534,77.789832 -8.51395,0.945994 -8.6491,1.756846 -5.67596,0.810853 -7.16254,0.945994 0.81086,2.837979 -0.67571,1.62171 4.32454,-0.67571 6.48683,-1.48657 9.73023,-0.6757 5.13539,0.27028 2.83799,0.27028 h 2.29742 l 3.91911,0.13514 -0.81085,-7.162523 z" id="path64" ns2:nodetypes="cccccccccccccccc" />
    <path style="fill:#fccae8;fill-opacity:1;stroke:none;stroke-width:1" d="m 151.14014,42.078461 -10.51158,0.76448 0.19112,36.312741 -1.72008,77.212398 12.80502,0.76448 z" id="path51" />
    <path style="fill:#cad5fc;fill-opacity:1;stroke:none;stroke-width:1;stroke-opacity:1" d="m 134.61423,87.520058 17.29818,0.40543 16.48733,0.40542 h 2.83798 l -0.81085,4.865107 c 0,0 -4.45968,-0.13514 -5.00025,-0.13514 -0.54057,0 -10.2708,0.13514 -10.2708,0.13514 l -9.86537,0.13515 -10.54108,1.486557 z" id="path62" />
    <path style="fill:#cad5fc;fill-opacity:1;stroke:none;stroke-width:1;stroke-opacity:1" d="m 127.72198,86.979488 -8.37881,-0.13514 -4.72997,0.40543 -4.18941,-0.13515 0.13514,-0.13514 0.40543,3.378547 -0.94599,1.48656 5.00026,-0.13514 h 3.37855 l 2.43256,0.946 4.45969,1.621697 1.21628,0.27028 z" id="path61" ns2:nodetypes="ccccccccccccc" />
    <path style="fill:#cad5fc;fill-opacity:1;stroke:none;stroke-width:1" d="m 115.78299,178.15572 9.55599,-2.67567 8.79151,-3.05792 h 2.29343 l 17.58302,6.49807 9.17374,9.55599 19.11197,17.58301 17.96525,28.28571 7.26255,13.37838 4.96911,9.93822 8.79151,-5.35136 -4.96911,-12.99613 -14.5251,-24.46332 -8.40926,-17.58301 -18.72973,-19.87645 -7.64479,-6.49806 -8.02703,-4.20464 -5.73359,-3.05791 -6.11583,-3.8224 -8.40927,-1.52895 h -11.84942 l -6.88032,3.44015 -5.35135,4.96911 z" id="path57" />
    <path style="fill:#cad5fc;fill-opacity:1;stroke:none;stroke-width:1" d="m 123.81002,146.42985 -7.64479,12.6139 -15.22003,21.61011 -3.891949,8.96905 -4.791575,13.49033 -4.76441,12.1197 -8.027025,32.87259 v 0.76448 l 6.880307,-1.14672 3.057917,-12.6139 7.644786,-23.3166 8.409269,-17.20077 7.64479,-13.37838 8.79151,-10.70271 6.49807,-5.35135 6.11584,-4.96911 2.29343,-3.05791 -4.96911,-7.26255 z" id="path54" ns2:nodetypes="ccccccccccccccccccc" />
    <path style="fill:#fccae8;fill-opacity:1;stroke:none;stroke-width:1" d="m 150.94903,142.60746 -11.46719,10.7027 10.70271,4.20464 11.84942,14.52509 11.84942,13.37838 8.40926,12.99614 11.46718,12.23166 6.11583,12.6139 12.99614,19.11197 4.96911,13.76062 6.11583,-4.96911 -21.4054,-42.42858 -16.05405,-29.05019 -10.70271,-15.28958 -10.7027,-8.40926 z" id="path53" />
    <path style="fill:#cad5fc;fill-opacity:1;stroke:none;stroke-width:1" d="m 136.76782,42.797108 -10.51158,0.76448 0.19112,36.312744 -1.72008,77.212388 12.80503,0.76448 z" id="path51-6" />
    <path style="fill:none;stroke:#000000;stroke-width:0.75169" d="m 101.58669,73.711506 c 2.0229,0.801327 4.26836,1.185368 6.0315,2.473742 2.45441,1.793497 3.97418,5.339445 2.65787,14.203027 -2.8594,6.148057 -7.12375,10.422885 -13.040606,12.494365" id="path1" ns2:nodetypes="cscc" />
    <path style="fill:none;stroke:#000000;stroke-width:0.756753" d="m 106.07538,97.079242 c 0.0428,1.387793 -8.1e-4,2.446913 -0.0946,3.315658 -0.22945,2.12626 -0.75898,3.11216 -1.05504,4.98529 -1.35895,2.18132 -2.8489,3.56389 -4.48828,4.46588 -2.856874,1.57185 -6.167545,1.68421 -10.029532,2.02076 -3.067168,0.2673 -8.866978,-3.52481 -12.662222,-8.48991 C 76.679338,99.010975 75.372127,95.247102 74.428705,90.573755 72.886737,84.654598 74.876302,79.45237 75.447677,73.472414 76.758906,70.21559 84.39513,55.268973 89.601515,56.442334" id="path2" ns2:nodetypes="cscsscscc" />
    <path style="fill:none;stroke:#000000;stroke-width:0.809096" d="m 109.10814,79.155682 c 0.31749,-1.573282 0.79325,-2.133539 1.02341,-4.265723 0.10497,-0.972454 0.15884,-2.271889 0.12331,-4.143542 0.0312,-3.420656 -0.5431,-5.457907 -1.61006,-6.939103 -1.32447,-1.838677 -3.40805,-2.820507 -6.03473,-4.528079 C 96.928797,56.19266 94.802863,56.274559 88.849457,56.60356" id="path3" ns2:nodetypes="cscscc" />
    <path style="fill:none;stroke:#000000;stroke-width:0.809096" d="m 108.72591,92.151815 8.97061,-0.43759 6.94011,1.58432" id="path4" ns2:nodetypes="ccc" />
    <path style="fill:none;stroke:#000000;stroke-width:0.809096" d="m 110.25486,86.800468 13.76063,0.38224" id="path5" />
    <path style="fill:none;stroke:#000000;stroke-width:0.98916" d="M 125.38269,93.275165 124.48388,148.6258" id="path6" ns2:nodetypes="cc" />
    <path style="fill:none;stroke:#000000;stroke-width:0.809096" d="m 137.57065,87.947188 0.76447,-45.486486" id="path8" />
    <path style="fill:none;stroke:#000000;stroke-width:0.809096" d="m 125.57085,43.09004 11.29692,-0.382241" id="path9" ns2:nodetypes="cc" />
    <path style="fill:none;stroke:#000000;stroke-width:0.98916" d="m 137.09245,94.813772 -0.66731,53.158758" id="path10" ns2:nodetypes="cc" />
    <path style="fill:none;stroke:#000000;stroke-width:0.809096" d="m 137.6662,87.851628 5.53943,0.35604 25.70865,-0.64272" id="path11" ns2:nodetypes="ccc" />
    <path style="fill:none;stroke:#000000;stroke-width:0.809096" d="m 136.80617,94.923052 9.31198,-1.094217 19.35597,-0.5303" id="path12" ns2:nodetypes="ccc" />
    <path style="fill:none;stroke:#000000;stroke-width:0.809096" d="m 167.95868,87.564948 5.54247,-3.05791" id="path13" ns2:nodetypes="cc" />
    <path style="fill:none;stroke:#000000;stroke-width:0.809096" d="m 165.47412,93.680775 6.88031,1.911197" id="path14" />
    <path style="fill:none;stroke:#000000;stroke-width:0.809096" d="m 176.55906,78.008965 c -3.50212,4.374913 -3.3028,6.056233 -4.20463,11.46718 -0.22192,5.123577 -0.30616,8.77369 3.44015,12.613915" id="path15" ns2:nodetypes="ccc" />
    <path style="fill:none;stroke:#000000;stroke-width:0.809096" d="m 172.35443,110.88159 3.8224,3.05792 c 2.53812,0.85332 4.93647,1.70702 7.84794,1.78141 2.26019,0.0577 4.32427,-0.23293 6.27723,-0.73072 6.14209,-1.72666 6.31737,-1.95616 9.19143,-7.16652" id="path16" ns2:nodetypes="ccssc" />
    <path style="fill:none;stroke:#000000;stroke-width:0.809096" d="m 203.38538,71.171052 3.37059,8.74911 -0.38223,11.849413 c -1.84356,7.82513 -4.23474,13.322875 -7.04045,17.058815" id="path17" ns2:nodetypes="cccc" />
    <path style="fill:none;stroke:#000000;stroke-width:0.809096" d="m 173.50115,82.213596 -2.29344,-4.204631 -1.9112,-4.204634 c -0.80423,-4.078414 -0.82095,-5.473927 0.18512,-7.697519 2.0082,-4.960689 4.704,-6.464282 14.72222,-6.445338 6.87617,0.46037 11.67389,3.59302 16.05405,7.262548 l 3.12748,5.034694" id="path18" ns2:nodetypes="cccsccc" />
    <path style="fill:none;stroke:#000000;stroke-width:0.964834" d="m 146.43267,158.74165 c 13.9803,6.11542 7.55028,4.28997 18.3164,14.59088" id="path20" ns2:nodetypes="cc" />
    <path style="fill:none;stroke:#000000;stroke-width:0.809096" d="m 136.04169,172.80438 c 17.04169,5.77212 27.8258,12.95634 37.9429,24.33104 12.55103,14.11119 36.79003,53.09807 38.50498,61.67282" id="path21" ns2:nodetypes="csc" />
    <path style="fill:none;stroke:#000000;stroke-width:0.809096" d="m 121.13434,180.8314 c 5.62824,-6.42869 11.05666,-9.06105 16.23488,-6.93935" id="path22" ns2:nodetypes="cc" />
    <path style="fill:none;stroke:#000000;stroke-width:0.809096" d="m 124.39773,146.9303 c -3.56319,6.85575 -3.57216,7.03192 -12.23167,17.96525 -12.06401,13.83602 -17.137865,28.01374 -23.173666,45.66676 -3.400872,10.1452 -6.845463,22.31129 -9.698923,38.80815" id="path24" ns2:nodetypes="ccsc" />
    <path style="fill:none;stroke:#000000;stroke-width:0.809096" d="m 151.7135,41.696223 0.76448,37.841699" id="path25" ns2:nodetypes="cc" />
    <path style="fill:none;stroke:#000000;stroke-width:0.809096" d="m 171.92582,78.252084 -3.81646,2.68963 -11.01745,0.61208 -4.99617,-2.398112" id="path26" ns2:nodetypes="cccc" />
    <path style="fill:none;stroke:#000000;stroke-width:0.809096" d="m 171.0166,85.844868 -17.20078,0.38224" id="path27" ns2:nodetypes="cc" />
    <path style="fill:none;stroke:#000000;stroke-width:0.809096" d="m 153.6247,86.418228 -1.52896,1.52896" id="path28" />
    <path style="fill:none;stroke:#000000;stroke-width:0.98916" d="m 152.07956,94.615402 0.38183,32.027058 0.76529,14.27747" id="path29" ns2:nodetypes="ccc" />
    <path style="fill:none;stroke:#000000;stroke-width:0.809096" d="m 141.77528,42.460702 -1.52896,36.31274" id="path30" ns2:nodetypes="cc" />
    <path style="fill:none;stroke:#000000;stroke-width:0.809096" d="m 110.54154,82.73918 15.38515,-2.054541" id="path31" ns2:nodetypes="cc" />
    <path style="fill:none;stroke:#000000;stroke-width:0.809096" d="m 140.43744,78.582324 -2.48455,0.955597" id="path32" ns2:nodetypes="cc" />
    <path style="fill:none;stroke:#000000;stroke-width:0.809096" d="m 124.39773,84.507038 -12.99614,2.15009" id="path33" ns2:nodetypes="cc" />
    <path style="fill:none;stroke:#000000;stroke-width:1" d="m 137.60639,84.389288 3.32089,0.42661" id="path34" />
    <path style="fill:none;stroke:#000000;stroke-width:0.727148" d="m 140.81968,88.424988 v -4.01351" id="path35" />
    <path style="fill:none;stroke:#000000;stroke-width:0.809096" d="m 140.62856,94.063015 -1.14672,52.749075" id="path36" />
    <path style="fill:none;stroke:#000000;stroke-width:0.932047" d="m 153.32716,141.88182 10.69777,11.80036" id="path37" ns2:nodetypes="cc" />
    <path style="fill:none;stroke:#000000;stroke-width:0.904207" d="m 160.1535,149.52496 12.54178,11.78506 10.03344,13.531 16.72237,27.93498 26.75581,48.88619 v 2.18241" id="path38" />
    <path style="fill:none;fill-opacity:1;stroke:#000000;stroke-width:0.809096" d="m 150.50884,158.34932 c 4.36905,4.20076 9.23054,7.17044 12.67185,13.69057 l 13.37837,17.96525 16.43629,21.02317 c 7.3227,10.58218 15.66334,25.16299 25.99228,44.33976" id="path39" ns2:nodetypes="ccccc" />
    <path style="fill:none;stroke:#000000;stroke-width:0.809096" d="m 150.56678,158.66151 -7.64478,1.9112 -12.23167,7.6448 c -8.03601,9.4483 -13.23959,19.17812 -19.33817,27.70238 -12.190108,17.03868 -16.925113,38.48668 -19.056731,53.03707" id="path40" ns2:nodetypes="cccsc" />
    <path style="fill:none;stroke:#000000;stroke-width:0.809096" d="m 139.0996,145.66538 -16.4363,16.05405 c -7.37103,7.1891 -11.74517,15.64756 -17.19514,23.30855 -4.82035,6.77594 -6.770279,15.18927 -10.630464,23.93301 -4.400983,9.96871 -8.865241,25.8857 -11.936683,40.15385" id="path41" ns2:nodetypes="ccssc" />
    <path style="fill:none;stroke:#000000;stroke-width:0.613178" d="m 117.83064,238.25918 c -1.21107,0.47042 -1.80334,-2.52526 -2.42418,-5.187 -0.35976,-1.54239 -0.54759,-3.74408 -0.4791,-6.75971 0.94477,-3.50105 2.18522,-5.52371 3.48664,-7.24147" id="path47" ns2:nodetypes="cscc" />
    <path style="fill:none;stroke:#000000;stroke-width:0.613178" d="m 153.92687,220.8121 c 1.03987,2.09339 1.46391,4.88033 1.70053,7.10858 l -0.93924,10.45341" id="path48" ns2:nodetypes="ccc" />
    <path style="fill:none;stroke:#000000;stroke-width:0.703028" d="m 117.35221,238.43561 c 1.06988,2.58222 3.72586,5.52187 5.74981,7.77508 2.54004,2.82777 5.36171,5.63861 7.28607,9.04045 l 2.06021,4.27577" id="path49" ns2:nodetypes="cscc" />
    <path style="fill:none;stroke:#000000;stroke-width:0.581244" d="m 154.82397,237.7534 c -0.47452,3.52816 -3.57322,6.41752 -7.16123,10.00202 -2.14207,1.80497 -4.33946,3.37228 -6.09004,5.20214 -1.87559,1.96053 -3.23832,4.22244 -3.47064,7.40096" id="path50" ns2:nodetypes="ccsc" />
    <path style="fill:#fccae8;fill-opacity:1;stroke:none;stroke-width:1" d="m 139.86408,146.42985 -4.96911,4.58688 -16.05406,15.67181 -6.49808,9.55599 -7.26255,11.46718 -8.409267,17.58301 -5.351352,11.84942 -4.204634,12.99614 -3.057914,16.05405 v 3.44017 l 6.498069,-0.38225 3.440155,-12.99614 6.498073,-20.64093 7.64479,-19.49421 9.93823,-12.23166 9.93823,-11.84942 3.44015,-5.73359 6.88031,-3.82239 10.70271,-5.35135 z" id="path52" />
    <path style="fill:#cad5fc;fill-opacity:1;stroke:none;stroke-width:1" d="m 126.10346,152.16345 -7.26255,11.84942" id="path55" />
    <path style="fill:#cad5fc;fill-opacity:1;stroke:none;stroke-width:1" d="m 113.10731,172.42213 2.29344,6.49807" id="path56" />
    <path style="fill:none;fill-opacity:1;stroke:#000000;stroke-width:1;stroke-opacity:1" d="m 131.92582,258.89699 c 1.77729,4.55223 4.67594,2.73625 6.79154,0.67571" id="path58" ns2:nodetypes="cc" />
    <path style="fill:#ffeeaa;fill-opacity:1;stroke:none;stroke-width:1;stroke-opacity:1" d="m 103.41618,108.32185 c 3.99598,17.80248 2.14154,34.52982 1.6641,52.6331 l 0.38224,11.84942 c 0.16622,5.47494 1.17298,10.81496 2.43735,16.11096 1.03277,4.32594 2.23742,8.62251 3.29624,12.93923 1.34535,3.98665 3.61481,7.48301 5.7336,11.08495 l 2.29343,2.67567 5.7336,0.76448 -0.76448,-1.14672 c -4.38708,-5.35852 -5.50385,-9.63122 -7.64479,-16.05405 -4.09988,-17.15999 -6.43439,-31.75508 -6.11584,-49.69112 0.5992,-18.77674 0.67025,-53.050058 -3.91514,-51.915038 l 0.0928,4.899588 z" id="path59" ns2:nodetypes="cccscccccccccc" />
    <path style="fill:none;stroke:#000000;stroke-width:0.809096" d="m 107.3969,95.190522 c 4.36491,12.688648 2.81082,27.140428 2.81082,38.475058 -0.0378,9.36611 0.48862,18.70642 0.98839,28.05385 1.05771,16.40789 4.03601,39.58593 12.31504,53.41425" id="path44" ns2:nodetypes="cccc" />
    <path style="fill:none;stroke:#000000;stroke-width:0.809096" d="m 103.28783,107.39764 0.64573,4.63067 1.52896,11.08495 v 22.16988 l -0.38224,8.79151 c -0.52948,8.18642 -0.14452,16.09415 1.53665,25.12631 0.2698,1.44953 0.57299,2.92802 0.91114,4.44126 l 2.90356,14.00771 4.96912,12.6139 4.63009,6.48212" id="path45" ns2:nodetypes="cccccscccc" />
    <path style="fill:#ffeeaa;fill-opacity:1;stroke:none;stroke-width:1;stroke-opacity:1" d="m 171.77829,97.250272 -5.1354,12.027698 -1.35142,12.70335 -0.40542,22.839 -1.21628,23.51471 -1.75684,13.10878 -4.72998,15.13591 -8.24366,14.73048 -2.67787,3.63916 4.705,3.25308 11.75736,-19.46045 6.08139,-22.29844 0.40542,-20.2713 0.946,-15.54133 0.54057,-19.19017 0.40542,-6.35168 1.21628,-4.59483 0.81085,-4.32454 2.29742,-4.45972 -1.62171,-2.162285 -1.6217,-1.08114 z" id="path60" ns2:nodetypes="cccccccccccccccccccccc" />
    <path style="fill:none;stroke:#000000;stroke-width:0.613178" d="m 118.05813,219.8796 c 2.5271,-4.59495 6.74957,-4.52766 10.64463,-5.36072 l 9.7054,-0.53608 8.14001,0.80411 5.63538,3.21643 1.87846,2.9484" id="path46" ns2:nodetypes="cccccc" />
    <path style="fill:none;stroke:#000000;stroke-width:0.809096" d="m 175.22122,101.70782 -2.86679,8.79153 -1.52896,10.32047 c -1.64433,6.83397 -1.52896,13.67755 -1.52896,20.64092 -0.40362,8.4045 -0.55933,16.8169 -0.76447,25.2278 v 8.02703 l -1.52896,7.64479 c -2.23063,13.71675 -6.40515,21.05273 -16.01247,35.31781" id="path43" ns2:nodetypes="cccccccc" />
    <path style="fill:none;stroke:#000000;stroke-width:0.809096" d="m 173.1631,95.400852 c -8.46508,17.956998 -8.59066,23.044348 -8.71711,44.910918 -0.0263,6.50822 -0.44702,16.03628 -0.44702,25.94816 -2.11838,19.94345 -8.71735,36.96281 -17.52941,48.87713" id="path42" ns2:nodetypes="cscc" />
    <path style="fill:#fccae8;fill-opacity:1;stroke:none;stroke-width:1;stroke-opacity:1" d="m 171.77829,79.276393 c -0.67571,0.270285 -0.40542,2.432558 -4.32454,2.567699 -3.91912,0.135142 -11.8925,-0.135141 -11.8925,-0.135141 l -8.78423,-4.594831 0.13514,10.000508 5.81111,0.40543 1.35142,-1.75685 9.3248,-0.54056 h 4.45968 2.16228 l 2.70284,-0.81086 z" id="path63" />
    <path style="fill:none;stroke:#000000;stroke-width:1" d="m 125.52662,86.939298 0.62259,-44.50547" id="path7" />
    <path style="fill:#ffeeaa;fill-opacity:1;stroke:none;stroke-width:0.510773;stroke-opacity:1" d="m 88.083109,110.98832 c -1.293895,-0.46221 -2.916775,-1.36993 -4.515438,-2.5256 -1.128194,-0.81557 -4.35374,-3.90642 -5.021842,-4.81214 -0.25101,-0.34028 -0.566248,-1.2362 -1.022342,-2.90557 -0.362683,-1.327485 -0.937913,-3.421948 -1.278289,-4.654378 -0.909741,-3.294007 -1.691323,-6.881467 -1.864005,-8.555783 -0.194903,-1.889736 -0.0081,-4.291915 0.626361,-8.055742 0.25686,-1.523725 0.56452,-3.500178 0.683686,-4.392115 0.214357,-1.604428 0.229558,-1.647619 1.426898,-4.054261 3.415077,-6.864273 7.504266,-12.319709 10.263936,-13.69324 l 0.743281,-0.369943 3.581265,0.01479 c 3.76488,0.01553 4.347625,0.08073 6.193906,0.692859 2.293224,0.760317 6.530314,3.107481 8.898944,4.929624 1.38324,1.064106 2.27031,2.56172 2.68003,4.524618 0.44904,2.151282 0.40316,7.084925 -0.0856,9.199915 l -0.16263,0.703783 -0.79357,-0.734711 c -0.95732,-0.886301 -2.08675,-1.44604 -4.73602,-2.347126 -1.89305,-0.643877 -1.99889,-0.664895 -2.12849,-0.422744 -0.29096,0.543664 -0.17184,0.63876 1.45154,1.158823 3.09625,0.991899 4.69935,1.867394 5.47875,2.992067 0.30829,0.444857 0.34473,0.590301 0.23967,0.956611 -0.13359,0.465818 -0.11665,0.491601 0.40463,0.615733 0.65857,0.156821 1.11463,2.331646 1.12415,5.360726 0.009,2.970866 -0.2447,5.117489 -0.73169,6.182749 -0.29365,0.64234 -0.45357,0.84463 -0.66774,0.84463 -0.23465,0 -0.2766,0.0745 -0.25155,0.44657 0.0363,0.53919 -0.55242,1.55738 -1.93455,3.345747 -2.31046,2.989513 -5.07422,5.127368 -8.491768,6.568588 -1.017154,0.42897 -1.23919,0.6842 -0.964049,1.1082 0.09908,0.15269 0.210497,0.15527 0.642696,0.0149 1.909771,-0.62028 5.078231,-2.5461 6.777651,-4.119515 l 0.97529,-0.90297 v 0.74615 c 0,1.12086 -0.22771,2.543705 -0.73545,4.595395 -0.39727,1.6053 -0.53573,1.95652 -1.06212,2.69418 -0.78028,1.09347 -2.28972,2.51441 -3.29261,3.09956 -2.170382,1.26633 -5.059394,1.8977 -9.505161,2.07725 -1.771893,0.0716 -1.856758,0.0621 -2.947799,-0.32762 z" id="path65" />
    <path style="fill:#ffeeaa;fill-opacity:1;stroke:none;stroke-width:0.510773;stroke-opacity:1" d="m 182.7395,115.14821 c -1.374,-0.15943 -2.78059,-0.49124 -4.67103,-1.10188 -1.68159,-0.54318 -1.68489,-0.54507 -3.46313,-1.99214 l -1.77993,-1.44844 1.30799,-4.00722 c 1.03812,-3.18044 1.38757,-4.0903 1.69367,-4.4098 l 0.38568,-0.40259 -0.53262,-0.57864 c -0.99383,-1.07974 -1.98477,-2.757995 -2.35088,-3.981408 -0.14376,-0.48043 -0.13597,-0.6473 0.0522,-1.11765 0.27522,-0.68784 0.28204,-0.63801 -0.10048,-0.73402 -0.17924,-0.045 -0.35796,-0.21605 -0.40358,-0.38629 -0.045,-0.16805 -0.0827,-1.417297 -0.0837,-2.776107 -0.002,-1.98867 0.0652,-2.8981 0.34189,-4.662404 0.18906,-1.205511 0.3947,-2.313464 0.45699,-2.46212 0.0623,-0.148656 0.11917,-0.430369 0.12643,-0.626026 0.0193,-0.519326 0.65055,-2.219232 1.18112,-3.180416 0.25299,-0.458324 0.82712,-1.328459 1.27583,-1.933633 l 0.81583,-1.100314 -0.30933,-0.25793 c -0.17014,-0.141861 -0.35406,-0.259953 -0.40872,-0.262424 -0.16804,-0.0076 -1.25492,1.453372 -1.95546,2.628527 l -0.66484,1.115253 -0.73486,-1.356066 c -0.40417,-0.745837 -0.74246,-1.406758 -0.75175,-1.468713 -0.009,-0.06195 -0.0245,-0.161994 -0.0338,-0.222305 -0.009,-0.06031 -0.12485,-0.227553 -0.2568,-0.371642 -0.13195,-0.144089 -0.67571,-1.235004 -1.20835,-2.424253 -1.10661,-2.470785 -1.42754,-3.831529 -1.43428,-6.081392 -0.005,-1.53766 0.20016,-2.275544 1.20114,-4.328366 0.96096,-1.970736 2.23485,-3.19998 4.10345,-3.959625 2.61589,-1.063445 9.32915,-1.4342 12.74917,-0.704104 3.86204,0.824458 7.73706,2.777739 11.44858,5.770872 1.08028,0.871183 1.23174,1.062384 2.65889,3.356367 0.83234,1.337905 1.59394,2.449769 1.69244,2.470809 0.0985,0.02103 0.86013,1.815047 1.6925,3.986688 l 1.51339,3.948438 -0.19939,5.811107 -0.1994,5.811112 -0.53095,2.04492 c -1.34291,5.17207 -3.24562,9.917755 -5.20259,12.976055 -0.4622,0.72231 -0.67888,0.9503 -0.85852,0.90333 -0.17932,-0.0469 -0.33866,0.11944 -0.62798,0.65554 -0.89197,1.65279 -1.85335,3.07084 -2.47809,3.65521 -0.89136,0.83376 -1.90752,1.32445 -4.23155,2.04335 -3.68103,1.13868 -6.43098,1.48456 -9.2252,1.16034 z" id="path66" />
    <path style="fill:#cad5fc;fill-opacity:1;stroke:none;stroke-width:0.510773;stroke-opacity:1" d="m 170.56201,94.612222 c -0.44596,-0.13629 -1.78387,-0.526067 -2.97312,-0.866167 l -2.16227,-0.61838 2.53391,0.0782 c 1.39365,0.043 2.53391,0.0362 2.53391,-0.015 0,-0.11573 0.65284,-4.0469 0.75658,-4.55586 l 0.0757,-0.371639 -2.8825,-0.025 c -1.58538,-0.01376 -2.54804,-0.04317 -2.13923,-0.06537 2.19624,-0.119292 2.70279,-0.199403 2.70598,-0.427942 0.002,-0.147235 0.58071,-0.540165 1.67466,-1.137176 0.91933,-0.501717 1.69762,-0.91221 1.72953,-0.91221 0.0319,0 -0.0821,0.866598 -0.25324,1.925775 -0.24837,1.536722 -0.31174,2.464972 -0.31368,4.594822 -0.003,3.041487 0.11404,2.823907 -1.28628,2.395977 z" id="path67" />
    <path style="fill:#ffeeaa;fill-opacity:1;stroke:none;stroke-width:0.510773;stroke-opacity:1" d="m 133.98222,260.86969 c -0.58143,-0.38346 -0.81167,-0.7665 -2.08947,-3.47604 -1.78415,-3.78328 -2.84492,-5.27966 -6.97946,-9.84565 -2.79305,-3.08451 -4.04224,-4.52018 -4.87539,-5.6032 -0.88108,-1.14532 -2.12513,-3.14054 -2.04203,-3.27501 0.11613,-0.1879 -0.22886,-0.77842 -0.4955,-0.84815 -0.36496,-0.0954 -0.84277,-1.23761 -1.33066,-3.18084 -0.60174,-2.39667 -0.81105,-4.01415 -0.82606,-6.38339 -0.0121,-1.91196 0.0161,-2.16968 0.34607,-3.16272 0.4994,-1.50288 1.88825,-4.28528 2.40748,-4.8231 0.23759,-0.24609 0.55583,-0.64505 0.70721,-0.88657 0.67381,-1.07507 2.17705,-2.35509 3.40226,-2.89706 0.533,-0.23577 0.7802,-0.26274 1.68477,-0.18383 1.03511,0.0903 1.22751,0.025 0.89796,-0.3045 -0.27857,-0.27857 0.0219,-0.38887 2.05416,-0.75397 1.49072,-0.26782 3.1074,-0.41651 6.75711,-0.62148 l 4.79754,-0.26944 3.93003,0.39296 c 4.482,0.44816 3.93716,0.26845 6.75647,2.22855 1.46528,1.01872 1.89636,1.25863 2.04297,1.13695 0.3306,-0.27438 0.74673,0.10896 1.60748,1.4808 1.30858,2.08561 1.89138,3.80147 2.30441,6.78454 0.21384,1.54447 0.21217,1.58741 -0.26887,6.9086 -0.38931,4.30646 -0.5407,5.50587 -0.77348,6.12802 -0.87258,2.3322 -4.31419,6.19232 -8.77434,9.84133 -1.37507,1.12501 -2.96163,2.5056 -3.52568,3.06798 -2.11661,2.11031 -3.32127,4.21859 -3.76759,6.59365 -0.15317,0.81505 -0.45081,1.13731 -1.64502,1.78104 -0.88667,0.47797 -1.74033,0.54121 -2.30237,0.17053 z" id="path68" />
    <path style="fill:#000000;fill-opacity:1;stroke:#000000;stroke-width:1;stroke-opacity:1" d="M 193.3776,94.445252 233.89497,78.008965" id="path69" />
    <path style="fill:#000000;fill-opacity:1;stroke:#000000;stroke-width:1;stroke-opacity:1" d="m 47.362132,75.715528 34.401544,9.55598" id="path70" />
    <path style="fill:#000000;fill-opacity:1;stroke:#000000;stroke-width:0.963656;stroke-opacity:1" d="m 140.99473,239.68485 18.44522,27.38572" id="path71" />
    <path style="fill:#000000;fill-opacity:1;stroke:#000000;stroke-width:1;stroke-opacity:1" d="m 78.323521,137.63835 29.432439,-10.7027" id="path72" />
    <path style="fill:#000000;fill-opacity:1;stroke:#000000;stroke-width:0.75;stroke-opacity:1" d="M 82.145914,147.19433 167.38532,128.4646" id="path73" />
    <path style="fill:#000000;fill-opacity:1;stroke:#000000;stroke-width:0.750001;stroke-opacity:1" d="M 127.25018,56.60356 95.524292,30.229041" id="path74" />
    <path style="fill:#000000;fill-opacity:1;stroke:#000000;stroke-width:0.750001;stroke-opacity:1" d="M 147.89111,62.337149 191.4664,34.051435" id="path75" />
  </g>
</svg>